<svg xmlns="http://www.w3.org/2000/svg" width="1024" height="260" viewBox="0 0 1024 260">
<g>
<path d="M 1002.66 106.90 C999.26,109.00 999.26,109.00 885.78,109.00 L 772.30 109.00 L 768.25 106.07 C760.38,100.36 760.39,91.42 768.27,86.20 L 772.35 83.50 L 883.76 83.23 C956.70,83.06 996.46,83.32 998.92,83.98 C1010.51,87.10 1012.72,100.68 1002.66,106.90 ZM 782.91 106.18 C785.51,107.24 805.96,107.49 888.32,107.45 C944.52,107.42 992.08,107.03 994.00,106.59 C995.92,106.15 999.43,104.60 1001.78,103.14 C1008.67,98.89 1008.76,93.40 1002.00,88.77 C999.80,87.26 996.79,86.08 995.26,86.15 C993.74,86.21 942.04,86.54 880.36,86.88 L 768.22 87.50 L 766.12 90.00 C762.73,94.02 762.49,96.63 765.14,100.54 C767.70,104.32 773.11,106.51 777.30,105.46 C778.61,105.13 781.13,105.46 782.91,106.18 ZM 186.30 141.08 C184.89,141.61 150.72,142.00 104.58,142.00 L 25.30 142.00 L 21.90 139.74 C20.03,138.49 17.65,135.75 16.62,133.64 C15.04,130.41 14.92,129.22 15.86,126.07 C16.48,124.01 17.86,121.53 18.93,120.57 C23.85,116.12 24.33,116.09 106.29,116.04 C182.28,116.00 184.17,116.05 188.02,118.01 C193.08,120.59 195.38,124.94 194.73,130.69 C194.21,135.32 190.98,139.30 186.30,141.08 ZM 438.80 139.03 L 434.70 142.00 L 355.08 142.00 C279.52,142.00 275.29,141.91 271.98,140.15 C266.96,137.48 263.70,132.34 264.37,128.14 C265.09,123.64 267.35,120.41 271.26,118.27 C274.27,116.63 280.09,116.48 352.50,116.20 C404.99,115.99 431.68,116.24 434.11,116.95 C441.91,119.22 445.08,124.44 443.56,132.53 C443.07,135.12 441.80,136.85 438.80,139.03 ZM 25.00 137.82 C30.38,139.85 32.07,139.90 103.34,139.95 C174.70,140.00 176.33,139.96 183.15,137.89 C191.97,135.21 193.91,132.80 191.98,126.94 C191.47,125.41 191.09,124.14 190.38,123.09 C186.95,118.00 175.97,118.00 107.41,118.00 L 104.08 118.00 C64.02,118.00 29.86,118.28 28.16,118.62 C26.47,118.96 23.26,120.91 21.04,122.96 C17.79,125.97 17.00,127.38 17.00,130.22 C17.00,134.38 17.72,135.06 25.00,137.82 ZM 271.69 137.47 L 274.50 139.95 L 353.00 139.65 C396.17,139.48 432.94,139.00 434.69,138.57 C438.89,137.54 440.76,135.32 441.54,130.45 C442.10,126.96 441.83,126.10 439.36,123.63 C438.49,122.76 437.84,122.03 437.09,121.40 C433.04,118.02 426.18,118.02 365.57,118.00 C362.17,118.00 358.59,118.00 354.83,118.00 C312.85,117.98 277.54,117.97 276.37,117.98 C273.79,118.00 268.46,123.23 267.14,127.03 C265.99,130.33 267.49,133.76 271.69,137.47 ZM 405.09 172.72 L 401.70 175.00 L 338.60 175.00 C280.53,175.00 275.22,174.86 272.00,173.25 C267.56,171.03 263.38,163.62 264.36,159.71 C265.40,155.55 271.18,150.40 275.63,149.66 C277.76,149.31 306.63,149.02 339.79,149.01 C398.22,149.00 400.20,149.06 404.02,151.01 C412.94,155.56 413.50,167.05 405.09,172.72 ZM 685.28 140.64 C682.68,141.74 670.10,142.00 619.78,142.00 C562.46,142.00 557.23,141.86 554.07,140.25 C544.32,135.28 544.06,122.91 553.59,118.00 C556.09,116.71 565.52,116.50 620.00,116.50 L 683.50 116.50 L 687.13 118.76 C691.56,121.51 693.44,125.68 692.71,131.10 C692.08,135.81 689.81,138.72 685.28,140.64 ZM 275.33 172.25 C281.17,173.23 396.20,173.02 399.90,172.03 C406.99,170.12 409.34,165.60 406.91,158.59 C405.73,155.20 404.78,154.27 401.00,152.82 C396.92,151.25 390.88,151.09 335.97,151.08 C277.48,151.06 275.32,151.13 272.19,153.03 C268.32,155.39 266.64,159.25 267.50,163.85 C268.20,167.60 272.02,171.69 275.33,172.25 ZM 556.31 138.90 C560.79,140.19 678.70,140.29 679.50,139.00 C679.84,138.45 681.01,138.00 682.09,138.00 C687.62,138.00 691.73,131.60 689.52,126.43 C686.06,118.31 683.20,117.98 615.38,118.08 C555.46,118.16 552.64,118.37 550.28,123.03 C547.08,129.36 550.01,137.07 556.31,138.90 ZM 1002.70 74.04 C999.65,75.90 997.36,75.99 953.50,75.99 L 951.58 75.99 C911.75,76.00 904.49,76.00 900.74,72.37 C899.85,71.50 899.16,70.43 898.27,69.10 C894.31,63.18 896.00,57.03 902.73,52.85 L 906.50 50.50 L 950.75 50.21 C998.92,49.90 1001.44,50.12 1006.18,55.19 C1011.16,60.52 1009.42,69.94 1002.70,74.04 ZM 868.70 74.04 C865.65,75.90 863.36,75.99 819.00,75.99 C774.67,75.99 772.35,75.90 769.30,74.04 C760.35,68.59 760.33,57.15 769.26,52.27 C772.20,50.67 776.67,50.47 817.00,50.19 C864.18,49.86 866.81,50.07 871.61,54.51 C877.07,59.58 875.54,69.87 868.70,74.04 ZM 906.10 72.87 C908.41,74.32 913.23,74.47 949.60,74.26 C972.10,74.13 992.36,73.77 994.63,73.47 C1000.60,72.67 1007.00,66.62 1007.00,61.78 C1007.00,57.58 1006.28,56.92 998.71,54.13 C993.15,52.08 991.31,52.00 951.64,52.00 L 910.36 52.00 L 904.93 54.75 C898.26,58.13 896.43,61.18 898.83,64.91 C901.61,69.23 903.38,71.16 906.10,72.87 ZM 815.00 74.01 C838.38,74.36 858.40,74.49 859.50,74.30 C865.56,73.25 867.27,72.45 869.84,69.52 C872.25,66.78 872.59,65.72 872.09,62.40 C871.18,56.34 868.84,53.82 863.30,52.91 C855.77,51.67 773.23,51.81 770.89,53.06 C769.80,53.64 768.46,55.11 767.91,56.31 C767.36,57.51 766.25,59.62 765.45,61.00 C763.01,65.15 765.02,70.19 769.96,72.29 C771.56,72.98 788.16,73.61 815.00,74.01 ZM 834.89 207.06 C831.37,208.85 828.87,209.00 802.29,208.96 C771.20,208.92 769.21,208.63 765.23,203.57 C760.11,197.05 762.14,189.20 769.96,185.25 C774.27,183.08 775.38,183.00 802.24,183.00 C832.45,183.00 834.62,183.32 839.50,188.60 C841.38,190.62 842.00,192.39 842.00,195.68 C842.00,201.09 839.86,204.52 834.89,207.06 ZM 87.58 240.39 C84.71,241.76 79.74,242.00 54.85,242.00 C27.52,241.99 25.28,241.86 22.30,240.04 C12.79,234.24 13.34,222.47 23.33,217.94 C27.10,216.23 30.18,216.04 55.13,216.02 C85.32,216.00 88.21,216.45 92.71,221.85 C97.26,227.29 94.55,237.09 87.58,240.39 ZM 337.66 106.90 C334.41,108.91 333.00,109.00 303.88,108.99 L 273.50 108.98 L 270.23 106.40 C263.33,100.96 262.42,93.97 267.85,88.16 C272.34,83.35 276.26,82.85 306.90,83.19 C334.58,83.50 334.66,83.51 338.27,85.98 C342.35,88.78 344.00,91.69 344.00,96.10 C344.00,100.37 341.59,104.47 337.66,106.90 ZM 652.72 240.33 C649.68,241.77 645.26,242.00 620.35,241.98 C587.91,241.95 586.85,241.75 582.28,234.85 C578.10,228.52 580.65,221.42 588.38,217.91 C592.08,216.23 595.31,216.04 620.28,216.02 C650.52,216.00 652.40,216.28 657.36,221.63 C662.42,227.09 659.99,236.88 652.72,240.33 ZM 87.58 74.39 C84.71,75.76 79.72,76.00 54.75,76.00 C25.82,76.00 25.24,75.96 21.90,73.74 C20.03,72.49 17.65,69.75 16.62,67.64 C15.04,64.41 14.92,63.22 15.86,60.07 C17.21,55.58 19.57,53.27 24.68,51.45 C30.17,49.49 78.80,49.43 85.25,51.37 C91.61,53.29 94.13,55.94 94.74,61.37 C95.37,66.95 92.58,72.02 87.58,74.39 ZM 1002.70 240.04 C999.72,241.86 997.52,241.99 970.00,241.97 C944.53,241.96 940.04,241.73 937.12,240.29 C932.84,238.18 930.01,233.58 930.00,228.71 C930.00,223.62 932.49,220.15 937.78,217.88 C941.72,216.19 944.96,216.00 969.56,216.00 C999.74,216.00 1003.11,216.54 1007.01,222.02 C1010.92,227.51 1008.82,236.31 1002.70,240.04 ZM 220.28 74.64 C217.81,75.68 210.26,76.00 187.78,75.99 C161.48,75.99 158.23,75.81 155.82,74.22 C146.42,68.02 146.50,57.20 156.00,52.35 C160.37,50.12 161.29,50.06 188.54,50.03 C215.66,50.00 216.72,50.07 221.03,52.25 C226.53,55.03 228.21,58.04 227.69,64.26 C227.24,69.62 225.12,72.59 220.28,74.64 ZM 719.70 74.04 C716.71,75.86 714.52,75.99 687.00,75.96 C654.74,75.92 653.03,75.66 649.15,70.21 C647.68,68.15 647.00,65.69 647.00,62.50 C647.00,58.54 647.49,57.35 650.08,54.93 C651.77,53.34 654.81,51.59 656.83,51.03 C661.70,49.68 711.37,49.70 716.25,51.05 C722.47,52.78 725.18,55.84 725.75,61.79 C726.33,67.78 724.76,70.95 719.70,74.04 ZM 469.51 107.56 C466.77,108.70 460.03,109.00 436.78,108.98 C408.74,108.97 407.36,108.88 404.21,106.86 C395.43,101.23 396.00,89.60 405.29,85.10 C409.39,83.12 411.20,83.00 437.57,83.02 C462.84,83.04 465.90,83.22 469.68,84.94 C479.41,89.36 479.30,103.47 469.51,107.56 ZM 652.58 207.39 C649.71,208.76 644.83,208.99 620.35,208.96 C588.51,208.92 587.04,208.68 582.92,202.89 C578.20,196.26 581.02,187.81 589.01,184.61 C592.38,183.26 597.58,183.00 620.70,183.00 C646.23,183.00 648.69,183.15 652.46,184.98 C662.30,189.75 662.38,202.75 652.58,207.39 ZM 586.53 73.98 C583.45,75.89 581.60,76.00 553.28,76.00 C523.80,76.00 523.24,75.96 519.90,73.74 C518.03,72.49 515.65,69.75 514.62,67.64 C512.96,64.24 512.89,63.36 514.06,59.83 C515.59,55.17 518.73,52.42 524.20,50.95 C526.67,50.28 538.45,50.00 555.82,50.19 C580.02,50.46 583.91,50.72 586.73,52.27 C594.95,56.76 594.83,68.85 586.53,73.98 ZM 586.53 39.98 C583.45,41.89 581.63,42.00 553.88,41.96 C522.15,41.92 520.22,41.64 516.23,36.57 C511.10,30.04 513.13,22.21 521.00,18.21 C525.43,15.96 525.98,15.93 554.50,16.21 L 583.50 16.50 L 587.20 19.00 C591.23,21.72 593.00,24.67 593.00,28.65 C593.00,32.67 590.08,37.79 586.53,39.98 ZM 87.72 173.33 C84.68,174.77 80.20,175.00 54.85,175.00 C27.87,174.99 25.26,174.84 22.50,173.11 C17.72,170.12 15.69,167.00 15.59,162.51 C15.48,157.60 17.79,153.71 22.26,151.27 C25.08,149.73 28.94,149.46 52.00,149.17 C79.48,148.82 87.02,149.53 90.75,152.80 C97.49,158.71 95.90,169.45 87.72,173.33 ZM 835.44 172.77 C832.10,174.96 831.44,175.00 802.26,174.94 C785.89,174.90 771.60,174.50 770.50,174.04 C769.40,173.58 767.19,171.83 765.60,170.14 C759.29,163.48 763.03,152.49 772.39,150.13 C778.58,148.57 826.95,148.61 832.18,150.17 C843.49,153.56 845.32,166.29 835.44,172.77 ZM 469.38 240.61 C464.52,242.64 409.94,242.47 405.23,240.41 C398.63,237.52 395.86,227.82 399.99,222.02 C403.90,216.53 407.23,216.00 437.77,216.02 C462.69,216.04 465.92,216.23 469.62,217.91 C474.93,220.33 477.00,223.38 477.00,228.82 C477.00,234.14 474.09,238.65 469.38,240.61 ZM 834.72 140.33 C831.68,141.77 827.23,142.00 802.35,142.00 C776.86,142.00 773.10,141.79 770.07,140.25 C760.32,135.28 760.06,122.91 769.59,118.00 C771.93,116.79 778.11,116.44 801.32,116.19 C828.60,115.90 830.36,115.99 834.34,117.92 C844.32,122.75 844.54,135.67 834.72,140.33 ZM 1002.70 40.04 C999.72,41.86 997.52,41.99 970.00,41.97 C945.01,41.96 940.00,41.71 937.26,40.36 C930.58,37.06 927.91,27.74 932.00,22.00 C935.74,16.75 940.41,16.00 969.43,16.01 C998.01,16.01 1001.85,16.55 1006.19,21.21 C1011.16,26.52 1009.41,35.95 1002.70,40.04 ZM 436.62 207.38 C433.70,208.76 429.01,208.99 404.85,208.94 C385.63,208.91 375.38,208.50 373.03,207.69 C365.53,205.11 362.35,194.15 367.50,188.60 C372.39,183.32 374.54,183.00 404.72,183.02 C429.85,183.04 432.90,183.23 436.68,184.94 C446.54,189.42 446.50,202.69 436.62,207.38 ZM 719.53 106.98 C716.44,108.89 714.62,109.00 686.38,108.98 C657.73,108.97 656.37,108.88 653.21,106.86 C645.00,101.60 644.85,90.74 652.92,85.73 C656.36,83.59 657.59,83.49 684.13,83.18 C714.58,82.83 718.12,83.28 722.95,88.10 C725.44,90.59 726.00,91.97 726.00,95.61 C726.00,100.81 724.09,104.16 719.53,106.98 ZM 336.58 74.39 C333.71,75.76 328.74,76.00 303.85,76.00 C276.52,75.99 274.28,75.86 271.30,74.04 C262.60,68.74 261.94,59.34 269.86,53.29 L 273.50 50.50 L 336.14 50.50 L 340.07 54.71 C343.16,58.03 344.00,59.70 344.00,62.59 C344.00,67.35 340.85,72.37 336.58,74.39 ZM 470.70 74.04 C467.71,75.86 465.53,75.99 438.00,75.96 C405.32,75.92 403.58,75.63 400.02,69.81 C395.17,61.85 399.01,53.54 408.69,51.07 C414.15,49.68 462.25,49.66 467.25,51.05 C473.15,52.69 476.12,55.84 476.71,61.12 C477.34,66.72 475.22,71.28 470.70,74.04 ZM 834.58 240.39 C831.71,241.76 826.83,241.99 802.35,241.96 C770.51,241.92 769.04,241.68 764.92,235.89 C761.92,231.68 761.80,226.10 764.61,222.29 C768.70,216.76 770.10,216.53 800.23,216.21 C831.02,215.88 834.60,216.35 839.12,221.29 C844.37,227.04 842.03,236.86 834.58,240.39 ZM 1002.70 173.04 C999.72,174.86 997.52,174.99 970.00,174.97 C938.69,174.95 936.75,174.69 932.43,169.92 C929.75,166.96 929.47,159.16 931.91,155.29 C935.48,149.60 940.56,148.83 972.21,149.19 C996.04,149.46 999.91,149.72 1002.73,151.27 C1011.01,155.79 1010.99,167.99 1002.70,173.04 ZM 336.58 207.39 C333.71,208.76 328.72,209.00 303.75,209.00 C274.82,209.00 274.24,208.96 270.90,206.74 C269.03,205.49 266.65,202.75 265.62,200.64 C263.08,195.46 264.58,190.18 269.70,186.28 L 273.34 183.50 L 304.42 183.50 C333.94,183.50 335.63,183.60 338.17,185.50 C346.38,191.67 345.56,203.14 336.58,207.39 ZM 220.51 107.56 C217.78,108.70 211.11,109.00 188.28,108.98 C156.42,108.95 154.58,108.64 150.88,102.56 C146.85,95.95 149.26,88.51 156.54,85.09 C161.00,82.99 162.17,82.92 189.91,83.21 C218.65,83.50 218.65,83.50 222.27,85.98 C224.26,87.35 226.36,89.51 226.95,90.78 C229.72,96.86 226.59,105.02 220.51,107.56 ZM 336.79 240.10 C333.39,241.84 330.64,242.00 304.29,242.00 C271.30,242.00 270.32,241.79 266.13,234.15 C264.00,230.27 263.87,229.39 264.90,225.93 C265.64,223.48 267.40,221.03 269.70,219.28 L 273.34 216.50 L 304.42 216.50 C333.94,216.50 335.63,216.60 338.17,218.50 C346.41,224.68 345.72,235.51 336.79,240.10 ZM 587.20 106.36 L 583.39 109.00 L 553.45 109.00 C526.04,108.99 523.24,108.84 520.46,107.14 C513.82,103.09 511.73,94.99 515.84,89.23 C519.70,83.80 521.69,83.50 554.07,83.50 L 583.65 83.50 L 587.34 86.00 C594.72,90.99 594.65,101.20 587.20,106.36 ZM 89.72 106.20 C86.55,108.46 86.00,108.50 55.96,108.79 C25.54,109.08 25.40,109.07 22.04,106.79 C17.59,103.76 14.62,98.00 15.49,94.05 C16.44,89.73 20.98,85.35 25.89,84.03 C28.74,83.26 39.26,82.99 57.90,83.19 C85.62,83.50 85.66,83.50 89.34,86.00 C96.43,90.79 96.62,101.28 89.72,106.20 ZM 1001.97 140.52 C998.00,142.57 942.12,142.64 937.50,140.60 C933.75,138.94 931.61,136.47 930.13,132.08 C929.16,129.18 929.29,128.04 930.97,124.56 C934.81,116.63 935.43,116.50 969.50,116.50 C996.29,116.50 999.85,116.69 1002.73,118.27 C1011.36,122.98 1010.92,135.89 1001.97,140.52 ZM 1001.51 207.56 C996.57,209.63 942.04,209.59 937.27,207.52 C928.26,203.60 927.65,189.98 936.27,185.27 C939.16,183.69 942.73,183.50 970.00,183.50 C998.31,183.50 1000.70,183.64 1003.30,185.40 C1011.48,190.94 1010.44,203.83 1001.51,207.56 ZM 89.53 206.17 C86.58,208.48 86.30,208.50 56.53,208.73 C23.68,208.99 22.10,208.76 18.21,203.30 C17.07,201.69 15.84,199.21 15.48,197.77 C14.60,194.29 17.41,188.56 21.37,185.73 C24.44,183.54 25.05,183.50 55.07,183.50 L 85.65 183.50 L 89.27 185.98 C93.41,188.82 95.02,191.72 94.96,196.30 C94.92,200.31 93.34,203.17 89.53,206.17 ZM 411.50 239.78 C413.70,240.31 425.49,240.80 437.71,240.87 C456.07,240.98 460.88,240.70 465.46,239.29 C470.67,237.69 471.56,236.83 472.45,232.63 C472.58,232.01 473.02,230.30 473.43,228.84 C474.47,225.12 471.64,221.20 466.22,218.88 C462.32,217.21 459.09,217.00 437.17,217.00 C416.72,216.99 411.71,217.27 407.88,218.65 C400.61,221.25 398.29,226.97 401.43,234.50 C402.35,236.69 403.70,238.09 405.18,238.37 C406.46,238.61 409.30,239.24 411.50,239.78 ZM 591.26 239.42 C598.43,242.56 650.59,240.84 654.05,237.35 C654.51,236.88 655.45,234.38 656.14,231.79 C657.24,227.65 657.19,226.86 655.70,225.22 C654.76,224.19 654.00,222.63 654.00,221.77 C654.00,218.45 648.24,217.65 621.22,217.23 C595.77,216.84 594.81,216.90 590.72,219.01 C585.03,221.94 582.00,224.90 582.00,227.52 C582.00,230.71 587.50,237.78 591.26,239.42 ZM 777.61 239.61 C781.95,240.22 794.95,240.78 806.50,240.86 C830.61,241.02 832.89,240.46 836.67,233.50 C840.47,226.49 839.69,222.95 833.63,219.71 C829.78,217.65 827.96,217.48 806.50,217.17 C778.01,216.77 774.46,217.16 769.11,221.27 C765.63,223.94 765.01,224.97 765.06,227.96 C765.09,229.91 766.15,233.07 767.42,235.00 C769.58,238.29 770.19,238.57 777.61,239.61 ZM 944.00 240.01 C945.38,240.47 957.08,240.88 970.01,240.92 C991.92,240.99 993.79,240.86 997.37,238.94 C1002.45,236.22 1004.64,234.09 1005.99,230.53 C1007.87,225.58 1006.63,223.56 999.77,220.39 C993.51,217.51 993.45,217.50 970.57,217.18 C952.33,216.93 946.90,217.16 944.07,218.30 C942.11,219.10 939.20,220.14 937.60,220.62 C936.01,221.11 933.82,222.69 932.73,224.15 L 930.76 226.80 L 933.31 232.36 C935.31,236.74 936.46,238.06 938.68,238.55 C940.23,238.89 942.62,239.55 944.00,240.01 ZM 26.86 239.10 C30.06,240.70 33.31,240.93 53.60,240.96 C66.31,240.98 78.01,240.59 79.60,240.08 C81.20,239.58 83.73,238.90 85.24,238.57 C89.03,237.74 92.55,230.78 92.12,224.98 C92.00,223.49 89.02,221.70 82.00,218.93 C77.44,217.12 37.37,216.37 31.50,217.97 C24.14,219.99 17.97,223.28 17.42,225.47 C16.24,230.17 20.08,235.71 26.86,239.10 ZM 535.00 40.07 C540.78,40.38 552.13,40.72 560.24,40.82 C574.81,41.00 575.07,40.96 582.24,37.82 C586.23,36.06 589.65,34.53 589.83,34.41 C590.73,33.78 590.57,26.79 589.61,24.95 C588.97,23.73 585.53,21.59 581.53,19.92 L 574.56 17.00 L 552.53 17.00 C532.91,17.00 529.92,17.22 525.23,19.00 C516.96,22.15 516.00,23.00 516.00,27.19 C516.00,36.37 520.28,39.27 535.00,40.07 ZM 950.95 40.07 C973.70,41.29 989.56,41.07 994.12,39.46 C1002.09,36.65 1005.85,34.52 1006.42,32.50 C1008.20,26.08 1005.47,22.53 996.14,19.13 C990.82,17.19 988.27,17.00 967.71,17.00 C955.28,17.00 944.87,17.39 944.58,17.88 C944.28,18.36 942.11,19.26 939.77,19.88 C933.52,21.53 931.59,23.37 931.70,27.53 C931.76,29.47 932.53,32.16 933.42,33.51 C936.54,38.28 939.70,39.46 950.95,40.07 ZM 285.00 240.41 C291.54,241.19 330.49,240.17 333.13,239.15 C336.49,237.86 339.96,233.00 340.68,228.58 C341.16,225.60 340.74,224.64 337.52,221.32 L 333.81 217.50 L 274.50 217.50 L 270.62 221.13 C266.91,224.60 266.77,224.96 267.42,229.29 C267.85,232.16 269.03,234.76 270.64,236.36 C273.05,238.78 274.33,239.14 285.00,240.41 ZM 23.13 203.82 L 28.27 208.00 L 52.81 208.00 C82.77,208.00 85.80,207.36 89.83,200.15 C93.66,193.29 91.14,187.33 83.80,185.93 C81.43,185.48 68.12,185.06 54.22,185.00 C29.25,184.88 28.88,184.91 23.47,187.38 L 18.00 189.89 L 18.00 194.77 C18.00,199.43 18.23,199.83 23.13,203.82 ZM 774.27 207.10 C776.60,207.50 790.20,207.76 804.50,207.67 C834.32,207.48 835.45,207.23 837.73,200.32 C838.79,197.14 838.87,195.22 838.06,192.23 C836.42,186.13 831.66,185.00 807.64,185.01 C797.11,185.01 784.06,185.30 778.64,185.66 C768.97,186.30 768.74,186.38 766.89,189.41 C763.75,194.57 764.57,199.42 769.69,205.94 C769.88,206.17 771.94,206.70 774.27,207.10 ZM 942.50 206.78 C944.17,207.34 956.67,207.83 970.65,207.89 L 995.79 208.00 L 1000.88 203.75 C1005.69,199.73 1005.97,199.24 1005.98,194.70 L 1006.00 189.91 L 1000.75 187.46 C995.61,185.07 994.98,185.02 970.00,185.05 C955.97,185.07 942.57,185.46 940.20,185.92 C932.86,187.34 930.34,193.29 934.17,200.15 C936.56,204.43 937.32,205.03 942.50,206.78 ZM 591.50 206.15 C595.16,207.89 597.76,208.02 622.50,207.77 C641.48,207.58 650.13,207.14 651.63,206.28 C653.97,204.94 657.00,198.33 657.00,194.55 C657.00,192.06 652.87,188.00 650.33,188.00 C649.56,188.00 647.86,187.30 646.56,186.45 C644.58,185.15 640.02,184.89 618.84,184.85 C603.98,184.82 592.43,185.22 590.91,185.81 C588.20,186.87 583.08,192.31 582.88,194.33 C582.39,199.32 585.21,203.18 591.50,206.15 ZM 379.57 206.90 C383.93,207.36 396.63,207.79 407.78,207.87 C429.86,208.01 432.81,207.47 438.25,202.26 C441.89,198.78 441.92,194.25 438.34,189.99 C436.87,188.25 434.51,186.38 433.09,185.82 C431.60,185.24 419.83,184.82 405.30,184.82 C385.53,184.83 379.50,185.13 377.30,186.25 C375.76,187.03 373.19,188.30 371.60,189.08 C367.10,191.28 366.36,193.17 367.83,198.71 C368.53,201.34 369.68,204.08 370.37,204.78 C371.07,205.49 375.20,206.44 379.57,206.90 ZM 275.13 73.76 C278.30,74.58 326.63,74.33 331.74,73.46 C333.52,73.16 335.27,72.96 335.61,73.03 C336.93,73.27 340.94,65.36 340.94,62.50 C340.94,59.40 338.09,55.50 334.20,53.25 C332.60,52.33 324.45,52.00 303.23,52.00 L 274.44 52.00 L 270.72 55.61 C265.73,60.47 265.53,63.13 269.72,69.26 C271.21,71.45 273.47,73.33 275.13,73.76 ZM 275.49 206.88 C277.69,207.38 290.88,207.83 304.80,207.89 C333.10,208.01 334.00,207.84 338.47,201.26 C341.82,196.33 341.66,193.68 337.75,189.49 L 334.50 186.02 L 318.50 185.37 C309.70,185.02 295.79,185.06 287.59,185.47 C273.89,186.16 272.50,186.41 270.38,188.53 C266.82,192.09 266.52,195.16 269.15,200.91 C271.21,205.38 271.95,206.08 275.49,206.88 ZM 654.77 71.50 L 658.50 74.04 L 687.07 73.96 C713.44,73.90 715.89,73.74 718.81,71.97 C720.55,70.91 722.59,68.57 723.35,66.77 C724.95,62.94 724.03,60.38 719.16,55.18 L 716.20 52.00 L 688.84 52.00 C673.80,52.00 659.95,52.44 658.07,52.98 C653.26,54.36 649.00,58.71 649.00,62.25 C649.00,66.24 650.44,68.54 654.77,71.50 ZM 768.84 136.82 L 771.80 140.00 L 799.16 140.00 C814.20,140.00 828.05,139.56 829.93,139.02 C831.81,138.48 834.62,136.82 836.17,135.33 C840.84,130.86 839.56,124.72 833.06,120.42 L 829.04 117.76 L 800.77 118.18 C769.34,118.65 767.72,118.96 764.86,125.01 C762.95,129.05 763.73,131.36 768.84,136.82 ZM 521.00 72.25 C524.07,73.78 527.79,74.00 551.43,74.00 C576.70,74.00 578.64,73.87 582.68,71.91 C587.90,69.39 591.00,65.68 591.00,61.98 C591.00,57.99 588.28,55.50 581.81,53.56 C576.93,52.09 572.41,51.90 550.31,52.17 C521.37,52.54 519.75,52.88 516.76,59.22 C514.32,64.41 516.07,69.78 521.00,72.25 ZM 52.00 173.00 C74.07,173.47 80.07,173.04 86.76,170.53 C87.45,170.27 88.28,170.15 88.59,170.28 C89.72,170.72 91.93,165.43 91.96,162.18 C92.01,157.76 90.60,155.37 86.72,153.30 C84.00,151.86 79.31,151.50 56.50,150.99 L 29.50 150.39 L 24.00 153.49 L 18.50 156.60 L 18.50 167.36 L 23.50 169.93 C28.35,172.42 29.21,172.51 52.00,173.00 ZM 943.50 139.50 C944.05,139.69 955.40,139.88 968.71,139.92 C991.07,139.99 993.37,139.84 998.71,137.87 C1006.28,135.08 1007.00,134.42 1007.00,130.22 C1007.00,127.38 1006.21,125.97 1002.96,122.96 C1000.74,120.91 997.53,118.96 995.84,118.62 C990.66,117.58 943.77,117.94 939.80,119.04 C932.74,121.00 930.26,127.27 933.68,134.45 C935.01,137.25 936.09,138.10 938.93,138.57 C940.89,138.90 942.95,139.32 943.50,139.50 ZM 945.68 172.88 C946.32,173.22 951.27,173.39 956.68,173.27 C962.08,173.14 973.03,172.90 981.00,172.73 C994.20,172.45 995.95,172.19 1000.50,169.89 L 1005.50 167.36 L 1005.50 162.08 C1005.50,157.02 1005.32,156.67 1001.27,153.73 L 997.03 150.67 L 974.27 150.85 C943.00,151.11 938.67,151.57 934.96,155.03 C929.18,160.44 932.59,170.12 940.81,171.59 C942.84,171.96 945.03,172.54 945.68,172.88 ZM 154.65 70.45 L 158.31 74.00 L 183.90 73.96 C215.19,73.92 221.22,72.84 224.50,66.73 C226.34,63.31 226.38,62.78 224.98,60.28 C223.50,57.63 222.30,56.82 215.10,53.55 C210.48,51.45 164.59,51.30 158.67,53.37 C152.58,55.48 151.00,57.36 151.00,62.44 C151.00,66.26 151.52,67.41 154.65,70.45 ZM 408.62 72.50 C412.26,73.52 420.12,73.82 439.50,73.68 C463.72,73.51 465.77,73.36 469.48,71.41 C472.45,69.86 473.62,68.53 474.10,66.16 C475.09,61.34 473.77,56.92 470.66,54.59 C468.01,52.62 466.40,52.48 441.90,52.18 C417.70,51.87 415.48,51.99 409.05,53.98 C400.52,56.63 398.88,58.66 400.43,64.71 C401.78,70.03 402.63,70.83 408.62,72.50 ZM 27.36 73.31 C32.09,74.23 80.69,73.94 84.20,72.96 C91.26,71.00 93.74,64.73 90.32,57.55 C89.03,54.83 87.82,53.85 85.07,53.26 C83.11,52.84 69.35,52.50 54.50,52.50 C27.67,52.50 27.47,52.52 22.50,55.01 C17.95,57.29 17.47,57.86 17.18,61.35 C16.90,64.75 17.34,65.62 21.04,69.04 C23.33,71.16 26.18,73.08 27.36,73.31 ZM 777.56 172.01 C781.38,172.40 794.40,172.76 806.50,172.80 C825.04,172.88 829.21,172.62 832.98,171.17 C838.32,169.13 839.86,166.05 838.43,160.31 C837.16,155.22 832.69,152.34 824.71,151.49 C816.68,150.63 772.01,151.35 769.83,152.37 C767.77,153.34 765.00,158.96 765.00,162.19 C765.00,163.50 766.26,166.09 767.81,167.94 C770.35,170.98 771.30,171.38 777.56,172.01 ZM 413.97 106.85 C419.52,107.93 462.07,107.39 466.50,106.19 C468.70,105.59 471.29,104.13 472.25,102.94 C474.69,99.93 474.60,91.96 472.10,88.87 L 470.20 86.52 L 446.09 86.85 C430.04,87.07 420.39,86.79 417.24,86.01 C413.16,85.01 411.73,85.12 407.00,86.76 C402.20,88.43 401.34,89.14 400.28,92.34 C399.31,95.23 399.31,96.77 400.28,99.65 C401.31,102.72 402.21,103.53 406.00,104.74 C408.48,105.53 412.06,106.48 413.97,106.85 ZM 29.49 106.51 C31.69,107.06 43.62,107.49 56.00,107.46 C82.93,107.40 87.91,106.51 90.39,101.30 C92.40,97.09 92.42,94.68 90.46,90.56 C88.57,86.57 84.23,85.00 78.50,86.24 C75.34,86.92 52.44,86.81 28.85,86.00 C27.35,85.94 24.19,87.32 21.60,89.14 C17.83,91.80 17.00,92.94 17.02,95.44 C17.02,97.12 17.36,98.97 17.77,99.55 C19.34,101.79 25.66,105.55 29.49,106.51 ZM 528.68 106.88 C529.33,107.22 540.82,107.50 554.22,107.50 L 578.58 107.50 L 584.33 104.01 C590.22,100.45 591.73,97.99 590.64,93.75 C589.93,91.00 581.78,85.70 578.73,86.01 C577.50,86.13 564.58,86.36 550.00,86.52 C535.42,86.67 522.72,86.85 521.77,86.90 C520.80,86.96 519.10,88.85 517.89,91.21 C515.99,94.93 515.89,95.82 517.00,98.96 C518.76,103.94 519.71,104.86 523.85,105.60 C525.86,105.96 528.03,106.54 528.68,106.88 ZM 175.38 106.37 C177.23,107.13 184.08,107.52 194.38,107.47 C217.45,107.36 225.40,104.56 225.40,96.58 C225.40,94.75 224.66,92.12 223.75,90.74 C221.62,87.49 212.31,84.38 208.29,85.59 C206.76,86.05 194.52,86.45 181.11,86.49 L 156.71 86.57 L 153.36 90.45 C149.48,94.94 149.29,96.32 151.95,100.69 C154.74,105.25 156.91,106.06 165.19,105.60 C169.51,105.35 173.68,105.67 175.38,106.37 ZM 671.01 106.22 C675.51,108.06 701.43,107.98 704.82,106.12 C706.25,105.34 708.59,105.09 710.87,105.48 C721.67,107.30 728.67,96.53 721.41,89.27 C719.45,87.30 717.19,87.15 681.72,86.63 L 652.95 86.20 L 651.47 89.05 C649.73,92.42 649.55,98.92 651.10,102.33 C651.99,104.26 653.19,104.86 657.17,105.33 C659.90,105.66 663.37,105.68 664.87,105.38 C666.37,105.08 669.13,105.46 671.01,106.22 ZM 287.46 106.35 C291.51,108.08 317.60,107.89 320.86,106.11 C322.18,105.38 324.58,105.06 326.36,105.38 C330.81,106.19 337.19,104.48 339.25,101.94 C341.91,98.66 341.48,93.57 338.25,89.98 L 335.50 86.93 L 305.00 86.86 C285.38,86.82 273.52,87.18 271.74,87.87 C270.19,88.48 268.27,90.46 267.34,92.41 C265.96,95.31 265.90,96.34 266.96,98.89 C268.84,103.45 274.39,106.33 279.97,105.64 C282.65,105.32 285.71,105.61 287.46,106.35 ZM 903.64 138.69 L 900.03 142.00 L 885.59 142.00 C871.36,142.00 871.11,141.96 867.94,139.30 C859.79,132.44 861.07,122.08 870.68,117.12 C871.97,116.46 878.18,116.00 885.79,116.00 C897.58,116.00 899.00,116.20 902.09,118.28 C906.73,121.41 908.17,124.53 907.67,130.44 C907.33,134.57 906.67,135.92 903.64,138.69 ZM 872.52 137.83 C882.11,141.62 900.58,140.14 903.63,135.35 C905.96,131.69 906.11,127.65 904.05,124.30 C900.96,119.26 897.59,118.08 885.76,117.93 C876.10,117.80 874.98,117.99 871.19,120.38 C866.37,123.43 865.00,125.62 865.00,130.31 C865.00,134.35 865.85,135.20 872.52,137.83 ZM 187.97 40.52 C185.50,41.79 173.92,42.00 105.30,42.00 C27.44,41.99 25.42,41.94 22.24,40.01 C12.62,34.14 13.19,22.54 23.33,17.94 C27.32,16.13 30.78,16.05 102.50,16.26 L 177.50 16.47 L 104.50 16.99 C37.79,17.46 31.11,17.65 26.97,19.27 C21.32,21.48 17.00,25.39 17.01,28.29 C17.05,34.20 18.28,35.32 28.91,39.08 C34.05,40.91 37.94,41.00 107.46,41.00 L 180.61 41.00 L 185.05 38.18 C187.50,36.63 190.38,33.72 191.46,31.72 C193.32,28.25 193.33,27.92 191.72,24.54 C190.79,22.59 189.46,20.99 188.77,20.97 C188.07,20.95 185.25,19.83 182.50,18.48 C178.17,16.35 177.87,16.02 180.23,16.01 C184.52,15.99 190.84,18.96 193.01,22.02 C197.18,27.87 194.68,37.05 187.97,40.52 ZM 436.62 40.38 C433.55,41.83 425.08,42.00 354.35,41.96 C290.62,41.93 274.91,41.66 272.42,40.58 C268.95,39.07 265.25,34.83 264.38,31.39 C263.45,27.68 265.88,22.20 269.75,19.24 L 273.34 16.50 L 348.42 16.48 L 423.50 16.45 L 349.50 16.98 L 275.50 17.50 L 271.66 19.90 C269.55,21.22 267.49,23.20 267.09,24.30 C265.89,27.52 268.01,35.96 270.40,37.52 C274.54,40.22 293.15,41.00 352.36,40.96 C429.82,40.92 436.76,40.24 440.51,32.34 C441.89,29.44 441.97,28.33 440.97,25.93 C439.75,22.97 435.07,19.46 429.55,17.33 L 426.50 16.15 L 429.23 16.08 C433.43,15.96 439.81,18.92 442.01,22.02 C446.33,28.08 443.70,37.02 436.62,40.38 ZM 653.02 173.17 C649.86,174.83 646.72,175.00 620.02,175.00 C592.72,174.99 590.26,174.85 587.37,173.08 C584.16,171.13 580.99,167.36 581.01,165.53 C581.02,164.96 582.15,165.93 583.53,167.68 C587.20,172.34 592.97,173.20 620.03,173.11 C640.37,173.04 643.42,172.82 648.25,171.01 C651.23,169.89 654.69,167.89 655.94,166.57 C657.96,164.42 658.08,163.78 657.07,160.72 C654.24,152.15 649.54,151.00 617.18,151.00 C586.21,151.00 585.58,151.19 581.24,161.50 L 579.97 164.50 L 580.48 161.17 C581.20,156.38 584.36,152.47 589.01,150.61 C592.38,149.27 597.57,149.00 620.53,149.00 C646.49,149.00 648.27,149.12 652.55,151.13 C659.69,154.48 661.85,160.87 658.25,167.92 C657.29,169.79 654.93,172.16 653.02,173.17 ZM 719.70 40.04 C716.72,41.86 714.52,41.99 687.00,41.97 C662.27,41.96 656.99,41.70 654.32,40.39 C649.34,37.93 647.70,35.46 647.22,29.67 C646.82,24.79 647.03,24.12 649.93,21.22 C651.67,19.49 654.75,17.61 656.79,17.04 C660.60,15.98 715.81,15.53 714.77,16.56 C714.46,16.87 702.01,17.08 687.09,17.03 C668.19,16.97 659.30,17.30 657.74,18.11 C656.51,18.76 653.78,21.01 651.68,23.13 C648.65,26.19 648.01,27.45 648.57,29.24 C649.76,32.99 652.14,36.02 655.11,37.55 C661.33,40.77 693.19,42.00 709.96,39.67 C717.93,38.57 718.56,38.30 720.71,35.10 C723.85,30.44 723.59,27.56 719.50,21.87 C715.74,16.64 715.91,15.97 720.27,18.84 C724.42,21.57 725.93,24.09 725.97,28.30 C726.01,33.26 723.69,37.61 719.70,40.04 ZM 834.58 40.39 C831.71,41.76 826.72,42.00 801.75,42.00 C772.85,42.00 772.23,41.96 768.98,39.75 C764.53,36.73 761.63,30.98 762.51,26.97 C763.21,23.75 769.18,16.99 771.28,17.02 C772.05,17.02 772.13,17.30 771.49,17.77 C769.35,19.33 765.00,27.07 765.00,29.33 C765.00,30.64 766.03,33.23 767.29,35.10 C769.44,38.30 770.07,38.57 778.04,39.67 C788.59,41.14 808.52,41.28 820.89,39.98 C831.65,38.84 835.92,36.79 838.41,31.56 C840.55,27.03 839.15,23.95 833.12,19.95 L 828.57 16.94 L 801.68 17.03 C786.89,17.08 774.51,16.85 774.17,16.50 C773.83,16.16 786.82,16.02 803.03,16.19 C829.81,16.47 832.78,16.67 835.61,18.39 C844.38,23.69 843.80,36.02 834.58,40.39 ZM 581.00 96.00 C581.00,97.93 579.04,98.71 577.67,97.33 C576.29,95.96 577.07,94.00 579.00,94.00 C580.33,94.00 581.00,94.67 581.00,96.00 ZM 30.81 95.74 C30.31,98.35 27.00,98.64 27.00,96.07 C27.00,94.64 27.64,94.00 29.07,94.00 C30.50,94.00 31.04,94.54 30.81,95.74 ZM 83.00 95.92 C83.00,97.06 82.36,98.00 81.59,98.00 C79.93,98.00 80.14,94.79 81.84,94.22 C82.48,94.01 83.00,94.77 83.00,95.92 ZM 996.00 96.00 C996.00,96.55 995.55,97.00 995.00,97.00 C994.45,97.00 994.00,96.55 994.00,96.00 C994.00,95.45 994.45,95.00 995.00,95.00 C995.55,95.00 996.00,95.45 996.00,96.00 Z" fill="rgb(229,220,210)"/>
<path d="M 782.91 106.18 C781.13,105.46 778.61,105.13 777.30,105.46 C773.11,106.51 767.70,104.32 765.14,100.54 C762.49,96.63 762.73,94.02 766.12,90.00 L 768.22 87.50 L 880.36 86.88 C942.04,86.54 993.74,86.21 995.26,86.15 C996.79,86.08 999.80,87.26 1002.00,88.77 C1008.76,93.40 1008.67,98.89 1001.78,103.14 C999.43,104.60 995.92,106.15 994.00,106.59 C992.08,107.03 944.52,107.42 888.32,107.45 C805.96,107.49 785.51,107.24 782.91,106.18 ZM 348.42 16.48 L 273.34 16.50 L 352.42 16.22 L 357.69 16.20 C397.12,16.06 417.12,15.99 427.74,16.63 L 429.55 17.33 C435.07,19.46 439.75,22.97 440.97,25.93 C441.97,28.33 441.89,29.44 440.51,32.34 C436.76,40.24 429.82,40.92 352.36,40.96 C293.15,41.00 274.54,40.22 270.40,37.52 C268.01,35.96 265.89,27.52 267.09,24.30 C267.49,23.20 269.55,21.22 271.66,19.90 L 275.50 17.50 L 349.50 16.98 L 423.50 16.45 ZM 175.62 16.49 C176.89,16.54 178.06,16.61 179.13,16.68 C179.65,17.05 180.74,17.61 182.50,18.48 C185.25,19.83 188.07,20.95 188.77,20.97 C189.46,20.99 190.79,22.59 191.72,24.54 C193.33,27.92 193.32,28.25 191.46,31.72 C190.38,33.72 187.50,36.63 185.05,38.18 L 180.61 41.00 L 107.46 41.00 C37.94,41.00 34.05,40.91 28.91,39.08 C18.28,35.32 17.05,34.20 17.01,28.29 C17.00,25.39 21.32,21.48 26.97,19.27 C31.11,17.65 37.79,17.46 104.50,16.99 ZM 25.00 137.82 C17.72,135.06 17.00,134.38 17.00,130.22 C17.00,127.38 17.79,125.97 21.04,122.96 C23.26,120.91 26.47,118.96 28.16,118.62 C29.86,118.28 64.02,118.00 104.08,118.00 L 107.41 118.00 L 107.41 118.00 C175.97,118.00 186.95,118.00 190.38,123.09 C191.09,124.14 191.47,125.41 191.98,126.94 C193.91,132.80 191.97,135.21 183.15,137.89 C176.33,139.96 174.70,140.00 103.34,139.95 C32.07,139.90 30.38,139.85 25.00,137.82 ZM 271.69 137.47 C267.49,133.76 265.99,130.33 267.14,127.03 C268.46,123.23 273.79,118.00 276.37,117.98 C277.54,117.97 312.85,117.98 354.83,118.00 C358.59,118.00 362.17,118.00 365.57,118.00 C426.18,118.02 433.04,118.02 437.09,121.40 C437.84,122.03 438.49,122.76 439.36,123.63 C441.83,126.10 442.10,126.96 441.54,130.45 C440.76,135.32 438.89,137.54 434.69,138.57 C432.94,139.00 396.17,139.48 353.00,139.65 L 274.50 139.95 ZM 275.33 172.25 C272.02,171.69 268.20,167.60 267.50,163.85 C266.64,159.25 268.32,155.39 272.19,153.03 C275.32,151.13 277.48,151.06 335.97,151.08 C390.88,151.09 396.92,151.25 401.00,152.82 C404.78,154.27 405.73,155.20 406.91,158.59 C409.34,165.60 406.99,170.12 399.90,172.03 C396.20,173.02 281.17,173.23 275.33,172.25 ZM 556.31 138.90 C550.01,137.07 547.08,129.36 550.28,123.03 C552.64,118.37 555.46,118.16 615.38,118.08 C683.20,117.98 686.06,118.31 689.52,126.43 C691.73,131.60 687.62,138.00 682.09,138.00 C681.01,138.00 679.84,138.45 679.50,139.00 C678.70,140.29 560.79,140.19 556.31,138.90 ZM 906.10 72.87 C903.38,71.16 901.61,69.23 898.83,64.91 C896.43,61.18 898.26,58.13 904.93,54.75 L 910.36 52.00 L 951.64 52.00 C991.31,52.00 993.15,52.08 998.71,54.13 C1006.28,56.92 1007.00,57.58 1007.00,61.78 C1007.00,66.62 1000.60,72.67 994.63,73.47 C992.36,73.77 972.10,74.13 949.60,74.26 C913.23,74.47 908.41,74.32 906.10,72.87 ZM 815.00 74.01 C788.16,73.61 771.56,72.98 769.96,72.29 C765.02,70.19 763.01,65.15 765.45,61.00 C766.25,59.62 767.36,57.51 767.91,56.31 C768.46,55.11 769.80,53.64 770.89,53.06 C773.23,51.81 855.77,51.67 863.30,52.91 C868.84,53.82 871.18,56.34 872.09,62.40 C872.59,65.72 872.25,66.78 869.84,69.52 C867.27,72.45 865.56,73.25 859.50,74.30 C858.40,74.49 838.38,74.36 815.00,74.01 ZM 411.50 239.78 C409.30,239.24 406.46,238.61 405.18,238.37 C403.70,238.09 402.35,236.69 401.43,234.50 C398.29,226.97 400.61,221.25 407.88,218.65 C411.71,217.27 416.72,216.99 437.17,217.00 C459.09,217.00 462.32,217.21 466.22,218.88 C471.64,221.20 474.47,225.12 473.43,228.84 C473.02,230.30 472.58,232.01 472.45,232.63 C471.56,236.83 470.67,237.69 465.46,239.29 C460.88,240.70 456.07,240.98 437.71,240.87 C425.49,240.80 413.70,240.31 411.50,239.78 ZM 774.17 16.50 C774.51,16.85 786.89,17.08 801.68,17.03 L 828.57 16.94 L 833.12 19.95 C839.15,23.95 840.55,27.03 838.41,31.56 C835.92,36.79 831.65,38.84 820.89,39.98 C808.52,41.28 788.59,41.14 778.04,39.67 C770.07,38.57 769.44,38.30 767.29,35.10 C766.03,33.23 765.00,30.64 765.00,29.33 C765.00,27.07 769.35,19.33 771.49,17.77 C771.89,17.47 772.01,17.25 771.85,17.13 C772.62,16.84 773.40,16.62 774.17,16.50 ZM 591.26 239.42 C587.50,237.78 582.00,230.71 582.00,227.52 C582.00,224.90 585.03,221.94 590.72,219.01 C594.81,216.90 595.77,216.84 621.22,217.23 C648.24,217.65 654.00,218.45 654.00,221.77 C654.00,222.63 654.76,224.19 655.70,225.22 C657.19,226.86 657.24,227.65 656.14,231.79 C655.45,234.38 654.51,236.88 654.05,237.35 C650.59,240.84 598.43,242.56 591.26,239.42 ZM 713.61 16.71 C714.86,16.87 715.92,17.07 716.84,17.31 C716.72,17.77 717.62,19.25 719.50,21.87 C723.59,27.56 723.85,30.44 720.71,35.10 C718.56,38.30 717.93,38.57 709.96,39.67 C693.19,42.00 661.33,40.77 655.11,37.55 C652.14,36.02 649.76,32.99 648.57,29.24 C648.01,27.45 648.65,26.19 651.68,23.13 C653.78,21.01 656.51,18.76 657.74,18.11 C659.30,17.30 668.19,16.97 687.09,17.03 C699.47,17.07 710.16,16.93 713.61,16.71 ZM 777.61 239.61 C770.19,238.57 769.58,238.29 767.42,235.00 C766.15,233.07 765.09,229.91 765.06,227.96 C765.01,224.97 765.63,223.94 769.11,221.27 C774.46,217.16 778.01,216.77 806.50,217.17 C827.96,217.48 829.78,217.65 833.63,219.71 C839.69,222.95 840.47,226.49 836.67,233.50 C832.89,240.46 830.61,241.02 806.50,240.86 C794.95,240.78 781.95,240.22 777.61,239.61 ZM 944.00 240.01 C942.62,239.55 940.23,238.89 938.68,238.55 C936.46,238.06 935.31,236.74 933.31,232.36 L 930.76 226.80 L 932.73 224.15 C933.82,222.69 936.01,221.11 937.60,220.62 C939.20,220.14 942.11,219.10 944.07,218.30 C946.90,217.16 952.33,216.93 970.57,217.18 C993.45,217.50 993.51,217.51 999.77,220.39 C1006.63,223.56 1007.87,225.58 1005.99,230.53 C1004.64,234.09 1002.45,236.22 997.37,238.94 C993.79,240.86 991.92,240.99 970.01,240.92 C957.08,240.88 945.38,240.47 944.00,240.01 ZM 26.86 239.10 C20.08,235.71 16.24,230.17 17.42,225.47 C17.97,223.28 24.14,219.99 31.50,217.97 C37.37,216.37 77.44,217.12 82.00,218.93 C89.02,221.70 92.00,223.49 92.12,224.98 C92.55,230.78 89.03,237.74 85.24,238.57 C83.73,238.90 81.20,239.58 79.60,240.08 C78.01,240.59 66.31,240.98 53.60,240.96 C33.31,240.93 30.06,240.70 26.86,239.10 ZM 535.00 40.07 C520.28,39.27 516.00,36.37 516.00,27.19 C516.00,23.00 516.96,22.15 525.23,19.00 C529.92,17.22 532.91,17.00 552.53,17.00 L 574.56 17.00 L 581.53 19.92 C585.53,21.59 588.97,23.73 589.61,24.95 C590.57,26.79 590.73,33.78 589.83,34.41 C589.65,34.53 586.23,36.06 582.24,37.82 C575.07,40.96 574.81,41.00 560.24,40.82 C552.13,40.72 540.78,40.38 535.00,40.07 ZM 950.95 40.07 C939.70,39.46 936.54,38.28 933.42,33.51 C932.53,32.16 931.76,29.47 931.70,27.53 C931.59,23.37 933.52,21.53 939.77,19.88 C942.11,19.26 944.28,18.36 944.58,17.88 C944.87,17.39 955.28,17.00 967.71,17.00 C988.27,17.00 990.82,17.19 996.14,19.13 C1005.47,22.53 1008.20,26.08 1006.42,32.50 C1005.85,34.52 1002.09,36.65 994.12,39.46 C989.56,41.07 973.70,41.29 950.95,40.07 ZM 285.00 240.41 C274.33,239.14 273.05,238.78 270.64,236.36 C269.03,234.76 267.85,232.16 267.42,229.29 C266.77,224.96 266.91,224.60 270.62,221.13 L 274.50 217.50 L 333.81 217.50 L 337.52 221.32 C340.74,224.64 341.16,225.60 340.68,228.58 C339.96,233.00 336.49,237.86 333.13,239.15 C330.49,240.17 291.54,241.19 285.00,240.41 ZM 23.13 203.82 C18.23,199.83 18.00,199.43 18.00,194.77 L 18.00 189.89 L 23.47 187.38 C28.88,184.91 29.25,184.88 54.22,185.00 C68.12,185.06 81.43,185.48 83.80,185.93 C91.14,187.33 93.66,193.29 89.83,200.15 C85.80,207.36 82.77,208.00 52.81,208.00 L 28.27 208.00 ZM 774.27 207.10 C771.94,206.70 769.88,206.17 769.69,205.94 C764.57,199.42 763.75,194.57 766.89,189.41 C768.74,186.38 768.97,186.30 778.64,185.66 C784.06,185.30 797.11,185.01 807.64,185.01 C831.66,185.00 836.42,186.13 838.06,192.23 C838.87,195.22 838.79,197.14 837.73,200.32 C835.45,207.23 834.32,207.48 804.50,207.67 C790.20,207.76 776.60,207.50 774.27,207.10 ZM 942.50 206.78 C937.32,205.03 936.56,204.43 934.17,200.15 C930.34,193.29 932.86,187.34 940.20,185.92 C942.57,185.46 955.97,185.07 970.00,185.05 C994.98,185.02 995.61,185.07 1000.75,187.46 L 1006.00 189.91 L 1005.98 194.70 C1005.97,199.24 1005.69,199.73 1000.88,203.75 L 995.79 208.00 L 970.65 207.89 C956.67,207.83 944.17,207.34 942.50,206.78 ZM 591.50 206.15 C585.21,203.18 582.39,199.32 582.88,194.33 C583.08,192.31 588.20,186.87 590.91,185.81 C592.43,185.22 603.98,184.82 618.84,184.85 C640.02,184.89 644.58,185.15 646.56,186.45 C647.86,187.30 649.56,188.00 650.33,188.00 C652.87,188.00 657.00,192.06 657.00,194.55 C657.00,198.33 653.97,204.94 651.63,206.28 C650.13,207.14 641.48,207.58 622.50,207.77 C597.76,208.02 595.16,207.89 591.50,206.15 ZM 379.57 206.90 C375.20,206.44 371.07,205.49 370.37,204.78 C369.68,204.08 368.53,201.34 367.83,198.71 C366.36,193.17 367.10,191.28 371.60,189.08 C373.19,188.30 375.76,187.03 377.30,186.25 C379.50,185.13 385.53,184.83 405.30,184.82 C419.83,184.82 431.60,185.24 433.09,185.82 C434.51,186.38 436.87,188.25 438.34,189.99 C441.92,194.25 441.89,198.78 438.25,202.26 C432.81,207.47 429.86,208.01 407.78,207.87 C396.63,207.79 383.93,207.36 379.57,206.90 ZM 275.13 73.76 C273.47,73.33 271.21,71.45 269.72,69.26 C265.53,63.13 265.73,60.47 270.72,55.61 L 274.44 52.00 L 303.23 52.00 C324.45,52.00 332.60,52.33 334.20,53.25 C338.09,55.50 340.94,59.40 340.94,62.50 C340.94,65.36 336.93,73.27 335.61,73.03 C335.27,72.96 333.52,73.16 331.74,73.46 C326.63,74.33 278.30,74.58 275.13,73.76 ZM 275.49 206.88 C271.95,206.08 271.21,205.38 269.15,200.91 C266.52,195.16 266.82,192.09 270.38,188.53 C272.50,186.41 273.89,186.16 287.59,185.47 C295.79,185.06 309.70,185.02 318.50,185.37 L 334.50 186.02 L 337.75 189.49 C341.66,193.68 341.82,196.33 338.47,201.26 C334.00,207.84 333.10,208.01 304.80,207.89 C290.88,207.83 277.69,207.38 275.49,206.88 ZM 654.77 71.50 C650.44,68.54 649.00,66.24 649.00,62.25 C649.00,58.71 653.26,54.36 658.07,52.98 C659.95,52.44 673.80,52.00 688.84,52.00 L 716.20 52.00 L 719.16 55.18 C724.03,60.38 724.95,62.94 723.35,66.77 C722.59,68.57 720.55,70.91 718.81,71.97 C715.89,73.74 713.44,73.90 687.07,73.96 L 658.50 74.04 ZM 581.09 165.37 C580.85,164.57 580.69,163.76 580.63,162.95 L 581.24 161.50 C585.58,151.19 586.21,151.00 617.18,151.00 C649.54,151.00 654.24,152.15 657.07,160.72 C658.08,163.78 657.96,164.42 655.94,166.57 C654.69,167.89 651.23,169.89 648.25,171.01 C643.42,172.82 640.37,173.04 620.03,173.11 C592.97,173.20 587.20,172.34 583.53,167.68 C582.36,166.19 581.36,165.27 581.09,165.37 ZM 768.84 136.82 C763.73,131.36 762.95,129.05 764.86,125.01 C767.72,118.96 769.34,118.65 800.77,118.18 L 829.04 117.76 L 833.06 120.42 C839.56,124.72 840.84,130.86 836.17,135.33 C834.62,136.82 831.81,138.48 829.93,139.02 C828.05,139.56 814.20,140.00 799.16,140.00 L 771.80 140.00 ZM 521.00 72.25 C516.07,69.78 514.32,64.41 516.76,59.22 C519.75,52.88 521.37,52.54 550.31,52.17 C572.41,51.90 576.93,52.09 581.81,53.56 C588.28,55.50 591.00,57.99 591.00,61.98 C591.00,65.68 587.90,69.39 582.68,71.91 C578.64,73.87 576.70,74.00 551.43,74.00 C527.79,74.00 524.07,73.78 521.00,72.25 ZM 52.00 173.00 C29.21,172.51 28.35,172.42 23.50,169.93 L 18.50 167.36 L 18.50 156.60 L 24.00 153.49 L 29.50 150.39 L 56.50 150.99 C79.31,151.50 84.00,151.86 86.72,153.30 C90.60,155.37 92.01,157.76 91.96,162.18 C91.93,165.43 89.72,170.72 88.59,170.28 C88.28,170.15 87.45,170.27 86.76,170.53 C80.07,173.04 74.07,173.47 52.00,173.00 ZM 943.50 139.50 C942.95,139.32 940.89,138.90 938.93,138.57 C936.09,138.10 935.01,137.25 933.68,134.45 C930.26,127.27 932.74,121.00 939.80,119.04 C943.77,117.94 990.66,117.58 995.84,118.62 C997.53,118.96 1000.74,120.91 1002.96,122.96 C1006.21,125.97 1007.00,127.38 1007.00,130.22 C1007.00,134.42 1006.28,135.08 998.71,137.87 C993.37,139.84 991.07,139.99 968.71,139.92 C955.40,139.88 944.05,139.69 943.50,139.50 ZM 945.68 172.88 C945.03,172.54 942.84,171.96 940.81,171.59 C932.59,170.12 929.18,160.44 934.96,155.03 C938.67,151.57 943.00,151.11 974.27,150.85 L 997.03 150.67 L 1001.27 153.73 C1005.32,156.67 1005.50,157.02 1005.50,162.08 L 1005.50 167.36 L 1000.50 169.89 C995.95,172.19 994.20,172.45 981.00,172.73 C973.03,172.90 962.08,173.14 956.68,173.27 C951.27,173.39 946.32,173.22 945.68,172.88 ZM 154.65 70.45 C151.52,67.41 151.00,66.26 151.00,62.44 C151.00,57.36 152.58,55.48 158.67,53.37 C164.59,51.30 210.48,51.45 215.10,53.55 C222.30,56.82 223.50,57.63 224.98,60.28 C226.38,62.78 226.34,63.31 224.50,66.73 C221.22,72.84 215.19,73.92 183.90,73.96 L 158.31 74.00 ZM 408.62 72.50 C402.63,70.83 401.78,70.03 400.43,64.71 C398.88,58.66 400.52,56.63 409.05,53.98 C415.48,51.99 417.70,51.87 441.90,52.18 C466.40,52.48 468.01,52.62 470.66,54.59 C473.77,56.92 475.09,61.34 474.10,66.16 C473.62,68.53 472.45,69.86 469.48,71.41 C465.77,73.36 463.72,73.51 439.50,73.68 C420.12,73.82 412.26,73.52 408.62,72.50 ZM 27.36 73.31 C26.18,73.08 23.33,71.16 21.04,69.04 C17.34,65.62 16.90,64.75 17.18,61.35 C17.47,57.86 17.95,57.29 22.50,55.01 C27.47,52.52 27.67,52.50 54.50,52.50 C69.35,52.50 83.11,52.84 85.07,53.26 C87.82,53.85 89.03,54.83 90.32,57.55 C93.74,64.73 91.26,71.00 84.20,72.96 C80.69,73.94 32.09,74.23 27.36,73.31 ZM 777.56 172.01 C771.30,171.38 770.35,170.98 767.81,167.94 C766.26,166.09 765.00,163.50 765.00,162.19 C765.00,158.96 767.77,153.34 769.83,152.37 C772.01,151.35 816.68,150.63 824.71,151.49 C832.69,152.34 837.16,155.22 838.43,160.31 C839.86,166.05 838.32,169.13 832.98,171.17 C829.21,172.62 825.04,172.88 806.50,172.80 C794.40,172.76 781.38,172.40 777.56,172.01 ZM 413.97 106.85 C412.06,106.48 408.48,105.53 406.00,104.74 C402.21,103.53 401.31,102.72 400.28,99.65 C399.31,96.77 399.31,95.23 400.28,92.34 C401.34,89.14 402.20,88.43 407.00,86.76 C411.73,85.12 413.16,85.01 417.24,86.01 C420.39,86.79 430.04,87.07 446.09,86.85 L 470.20 86.52 L 472.10 88.87 C474.60,91.96 474.69,99.93 472.25,102.94 C471.29,104.13 468.70,105.59 466.50,106.19 C462.07,107.39 419.52,107.93 413.97,106.85 ZM 29.49 106.51 C25.66,105.55 19.34,101.79 17.77,99.55 C17.36,98.97 17.02,97.12 17.02,95.44 C17.00,92.94 17.83,91.80 21.60,89.14 C24.19,87.32 27.35,85.94 28.85,86.00 C52.44,86.81 75.34,86.92 78.50,86.24 C84.23,85.00 88.57,86.57 90.46,90.56 C92.42,94.68 92.40,97.09 90.39,101.30 C87.91,106.51 82.93,107.40 56.00,107.46 C43.62,107.49 31.69,107.06 29.49,106.51 ZM 528.68 106.88 C528.03,106.54 525.86,105.96 523.85,105.60 C519.71,104.86 518.76,103.94 517.00,98.96 C515.89,95.82 515.99,94.93 517.89,91.21 C519.10,88.85 520.80,86.96 521.77,86.90 C522.72,86.85 535.42,86.67 550.00,86.52 C564.58,86.36 577.50,86.13 578.73,86.01 C581.78,85.70 589.93,91.00 590.64,93.75 C591.73,97.99 590.22,100.45 584.33,104.01 L 578.58 107.50 L 554.22 107.50 C540.82,107.50 529.33,107.22 528.68,106.88 ZM 175.38 106.37 C173.68,105.67 169.51,105.35 165.19,105.60 C156.91,106.06 154.74,105.25 151.95,100.69 C149.29,96.32 149.48,94.94 153.36,90.45 L 156.71 86.57 L 181.11 86.49 C194.52,86.45 206.76,86.05 208.29,85.59 C212.31,84.38 221.62,87.49 223.75,90.74 C224.66,92.12 225.40,94.75 225.40,96.58 C225.40,104.56 217.45,107.36 194.38,107.47 C184.08,107.52 177.23,107.13 175.38,106.37 ZM 671.01 106.22 C669.13,105.46 666.37,105.08 664.87,105.38 C663.37,105.68 659.90,105.66 657.17,105.33 C653.19,104.86 651.99,104.26 651.10,102.33 C649.55,98.92 649.73,92.42 651.47,89.05 L 652.95 86.20 L 681.72 86.63 C717.19,87.15 719.45,87.30 721.41,89.27 C728.67,96.53 721.67,107.30 710.87,105.48 C708.59,105.09 706.25,105.34 704.82,106.12 C701.43,107.98 675.51,108.06 671.01,106.22 ZM 287.46 106.35 C285.71,105.61 282.65,105.32 279.97,105.64 C274.39,106.33 268.84,103.45 266.96,98.89 C265.90,96.34 265.96,95.31 267.34,92.41 C268.27,90.46 270.19,88.48 271.74,87.87 C273.52,87.18 285.38,86.82 305.00,86.86 L 335.50 86.93 L 338.25 89.98 C341.48,93.57 341.91,98.66 339.25,101.94 C337.19,104.48 330.81,106.19 326.36,105.38 C324.58,105.06 322.18,105.38 320.86,106.11 C317.60,107.89 291.51,108.08 287.46,106.35 ZM 872.52 137.83 C865.85,135.20 865.00,134.35 865.00,130.31 C865.00,125.62 866.37,123.43 871.19,120.38 C874.98,117.99 876.10,117.80 885.76,117.93 C897.59,118.08 900.96,119.26 904.05,124.30 C906.11,127.65 905.96,131.69 903.63,135.35 C900.58,140.14 882.11,141.62 872.52,137.83 ZM 31.08 16.56 C39.50,16.08 58.23,16.04 105.23,16.02 C107.13,16.02 108.99,16.02 110.81,16.02 C144.84,16.01 164.02,16.00 175.15,16.47 L 102.50 16.26 C57.41,16.13 39.30,16.11 31.08,16.56 ZM 581.00 96.00 C581.00,94.67 580.33,94.00 579.00,94.00 C577.07,94.00 576.29,95.96 577.67,97.33 C579.04,98.71 581.00,97.93 581.00,96.00 ZM 30.81 95.74 C31.04,94.54 30.50,94.00 29.07,94.00 C27.64,94.00 27.00,94.64 27.00,96.07 C27.00,98.64 30.31,98.35 30.81,95.74 ZM 83.00 95.92 C83.00,94.77 82.48,94.01 81.84,94.22 C80.14,94.79 79.93,98.00 81.59,98.00 C82.36,98.00 83.00,97.06 83.00,95.92 ZM 996.00 96.00 C996.00,95.45 995.55,95.00 995.00,95.00 C994.45,95.00 994.00,95.45 994.00,96.00 C994.00,96.55 994.45,97.00 995.00,97.00 C995.55,97.00 996.00,96.55 996.00,96.00 ZM 435.77 17.57 C438.23,18.13 439.45,18.88 440.40,19.89 C440.96,20.49 441.42,21.19 441.99,21.98 C440.78,20.32 438.39,18.70 435.77,17.57 ZM 186.89 17.62 C189.29,18.18 190.49,18.92 191.41,19.91 C191.98,20.51 192.44,21.21 193.01,22.02 C191.85,20.38 189.49,18.77 186.89,17.62 ZM 689.07 16.01 C674.49,16.11 658.76,16.49 656.79,17.04 C658.91,16.45 671.99,16.01 687.28,16.01 C687.89,16.01 688.49,16.01 689.07,16.01 ZM 805.50 16.18 C829.66,16.47 832.76,16.68 835.55,18.35 C832.74,16.67 829.60,16.47 803.03,16.19 C797.12,16.13 791.64,16.11 787.07,16.13 C792.42,16.09 798.88,16.10 805.50,16.18 ZM 766.89 20.20 C764.85,22.39 762.89,25.21 762.51,26.97 C763.03,24.58 764.71,22.14 766.89,20.20 ZM 725.75 25.93 C726.41,28.74 725.96,31.91 724.57,34.68 C725.50,32.77 725.99,30.60 725.97,28.30 C725.96,27.45 725.89,26.66 725.75,25.93 ZM 581.13 158.58 C582.20,155.24 584.85,152.28 589.01,150.61 C585.23,152.12 582.44,154.99 581.13,158.58 ZM 719.19 18.15 C720.31,18.68 721.22,19.35 722.11,20.18 C721.56,19.73 720.95,19.29 720.27,18.84 C719.87,18.58 719.52,18.35 719.19,18.15 Z" fill="rgb(230,217,204)"/>
<path d="M 87.58 240.39 C94.55,237.09 97.26,227.29 92.71,221.85 C88.21,216.45 85.32,216.00 55.13,216.02 C30.18,216.04 27.10,216.23 23.33,217.94 C13.34,222.47 12.79,234.24 22.30,240.04 C25.28,241.86 27.52,241.99 54.85,242.00 C79.74,242.00 84.71,241.76 87.58,240.39 ZM 336.79 240.10 C345.72,235.51 346.41,224.68 338.17,218.50 C335.63,216.60 333.94,216.50 304.42,216.50 L 273.34 216.50 L 269.70 219.28 C267.40,221.03 265.64,223.48 264.90,225.93 C263.87,229.39 264.00,230.27 266.13,234.15 C270.32,241.79 271.30,242.00 304.29,242.00 C330.64,242.00 333.39,241.84 336.79,240.10 ZM 469.38 240.61 C474.09,238.65 477.00,234.14 477.00,228.82 C477.00,223.38 474.93,220.33 469.62,217.91 C465.92,216.23 462.69,216.04 437.77,216.02 C407.23,216.00 403.90,216.53 399.99,222.02 C395.86,227.82 398.63,237.52 405.23,240.41 C409.94,242.47 464.52,242.64 469.38,240.61 ZM 652.72 240.33 C659.99,236.88 662.42,227.09 657.36,221.63 C652.40,216.28 650.52,216.00 620.28,216.02 C595.31,216.04 592.08,216.23 588.38,217.91 C580.65,221.42 578.10,228.52 582.28,234.85 C586.85,241.75 587.91,241.95 620.35,241.98 C645.26,242.00 649.68,241.77 652.72,240.33 ZM 834.58 240.39 C842.03,236.86 844.37,227.04 839.12,221.29 C834.60,216.35 831.02,215.88 800.23,216.21 C770.10,216.53 768.70,216.76 764.61,222.29 C761.80,226.10 761.92,231.68 764.92,235.89 C769.04,241.68 770.51,241.92 802.35,241.96 C826.83,241.99 831.71,241.76 834.58,240.39 ZM 1002.70 240.04 C1008.82,236.31 1010.92,227.51 1007.01,222.02 C1003.11,216.54 999.74,216.00 969.56,216.00 C944.96,216.00 941.72,216.19 937.78,217.88 C932.49,220.15 930.00,223.62 930.00,228.71 C930.01,233.58 932.84,238.18 937.12,240.29 C940.04,241.73 944.53,241.96 970.00,241.97 C997.52,241.99 999.72,241.86 1002.70,240.04 ZM 89.53 206.17 C93.34,203.17 94.92,200.31 94.96,196.30 C95.02,191.72 93.41,188.82 89.27,185.98 L 85.65 183.50 L 55.07 183.50 C25.05,183.50 24.44,183.54 21.37,185.73 C17.41,188.56 14.60,194.29 15.48,197.77 C15.84,199.21 17.07,201.69 18.21,203.30 C22.10,208.76 23.68,208.99 56.53,208.73 C86.30,208.50 86.58,208.48 89.53,206.17 ZM 336.58 207.39 C345.56,203.14 346.38,191.67 338.17,185.50 C335.63,183.60 333.94,183.50 304.42,183.50 L 273.34 183.50 L 269.70 186.28 C264.58,190.18 263.08,195.46 265.62,200.64 C266.65,202.75 269.03,205.49 270.90,206.74 C274.24,208.96 274.82,209.00 303.75,209.00 C328.72,209.00 333.71,208.76 336.58,207.39 ZM 436.62 207.38 C446.50,202.69 446.54,189.42 436.68,184.94 C432.90,183.23 429.85,183.04 404.72,183.02 C374.54,183.00 372.39,183.32 367.50,188.60 C362.35,194.15 365.53,205.11 373.03,207.69 C375.38,208.50 385.63,208.91 404.85,208.94 C429.01,208.99 433.70,208.76 436.62,207.38 ZM 652.58 207.39 C662.38,202.75 662.30,189.75 652.46,184.98 C648.69,183.15 646.23,183.00 620.70,183.00 C597.58,183.00 592.38,183.26 589.01,184.61 C581.02,187.81 578.20,196.26 582.92,202.89 C587.04,208.68 588.51,208.92 620.35,208.96 C644.83,208.99 649.71,208.76 652.58,207.39 ZM 834.89 207.06 C839.86,204.52 842.00,201.09 842.00,195.68 C842.00,192.39 841.38,190.62 839.50,188.60 C834.62,183.32 832.45,183.00 802.24,183.00 C775.38,183.00 774.27,183.08 769.96,185.25 C762.14,189.20 760.11,197.05 765.23,203.57 C769.21,208.63 771.20,208.92 802.29,208.96 C828.87,209.00 831.37,208.85 834.89,207.06 ZM 1001.51 207.56 C1010.44,203.83 1011.48,190.94 1003.30,185.40 C1000.70,183.64 998.31,183.50 970.00,183.50 C942.73,183.50 939.16,183.69 936.27,185.27 C927.65,189.98 928.26,203.60 937.27,207.52 C942.04,209.59 996.57,209.63 1001.51,207.56 ZM 87.72 173.33 C95.90,169.45 97.49,158.71 90.75,152.80 C87.02,149.53 79.48,148.82 52.00,149.17 C28.94,149.46 25.08,149.73 22.26,151.27 C17.79,153.71 15.48,157.60 15.59,162.51 C15.69,167.00 17.72,170.12 22.50,173.11 C25.26,174.84 27.87,174.99 54.85,175.00 C80.20,175.00 84.68,174.77 87.72,173.33 ZM 405.09 172.72 C413.50,167.05 412.94,155.56 404.02,151.01 C400.20,149.06 398.22,149.00 339.79,149.01 C306.63,149.02 277.76,149.31 275.63,149.66 C271.18,150.40 265.40,155.55 264.36,159.71 C263.38,163.62 267.56,171.03 272.00,173.25 C275.22,174.86 280.53,175.00 338.60,175.00 L 401.70 175.00 L 405.09 172.72 ZM 653.02 173.17 C654.93,172.16 657.29,169.79 658.25,167.92 C661.85,160.87 659.69,154.48 652.55,151.13 C648.27,149.12 646.49,149.00 620.53,149.00 C597.57,149.00 592.38,149.27 589.01,150.61 C578.59,154.78 577.65,167.15 587.30,173.04 C590.28,174.86 592.52,174.99 620.02,175.00 C646.72,175.00 649.86,174.83 653.02,173.17 ZM 835.44 172.77 C845.32,166.29 843.49,153.56 832.18,150.17 C826.95,148.61 778.58,148.57 772.39,150.13 C763.03,152.49 759.29,163.48 765.60,170.14 C767.19,171.83 769.40,173.58 770.50,174.04 C771.60,174.50 785.89,174.90 802.26,174.94 C831.44,175.00 832.10,174.96 835.44,172.77 ZM 1002.70 173.04 C1010.99,167.99 1011.01,155.79 1002.73,151.27 C999.91,149.72 996.04,149.46 972.21,149.19 C940.56,148.83 935.48,149.60 931.91,155.29 C929.47,159.16 929.75,166.96 932.43,169.92 C936.75,174.69 938.69,174.95 970.00,174.97 C997.52,174.99 999.72,174.86 1002.70,173.04 ZM 186.30 141.08 C190.98,139.30 194.21,135.32 194.73,130.69 C195.38,124.94 193.08,120.59 188.02,118.01 C184.17,116.05 182.28,116.00 106.29,116.04 C24.33,116.09 23.85,116.12 18.93,120.57 C17.86,121.53 16.48,124.01 15.86,126.07 C14.92,129.22 15.04,130.41 16.62,133.64 C17.65,135.75 20.03,138.49 21.90,139.74 L 25.30 142.00 L 104.58 142.00 C150.72,142.00 184.89,141.61 186.30,141.08 ZM 438.80 139.03 C441.80,136.85 443.07,135.12 443.56,132.53 C445.08,124.44 441.91,119.22 434.11,116.95 C431.68,116.24 404.99,115.99 352.50,116.20 C280.09,116.48 274.27,116.63 271.26,118.27 C267.35,120.41 265.09,123.64 264.37,128.14 C263.70,132.34 266.96,137.48 271.98,140.15 C275.29,141.91 279.52,142.00 355.08,142.00 L 434.70 142.00 L 438.80 139.03 ZM 685.28 140.64 C689.81,138.72 692.08,135.81 692.71,131.10 C693.44,125.68 691.56,121.51 687.13,118.76 L 683.50 116.50 L 620.00 116.50 C565.52,116.50 556.09,116.71 553.59,118.00 C544.06,122.91 544.32,135.28 554.07,140.25 C557.23,141.86 562.46,142.00 619.78,142.00 C670.10,142.00 682.68,141.74 685.28,140.64 ZM 834.72 140.33 C844.54,135.67 844.32,122.75 834.34,117.92 C830.36,115.99 828.60,115.90 801.32,116.19 C778.11,116.44 771.93,116.79 769.59,118.00 C760.06,122.91 760.32,135.28 770.07,140.25 C773.10,141.79 776.86,142.00 802.35,142.00 C827.23,142.00 831.68,141.77 834.72,140.33 ZM 903.64 138.69 C906.67,135.92 907.33,134.57 907.67,130.44 C908.17,124.53 906.73,121.41 902.09,118.28 C899.00,116.20 897.58,116.00 885.79,116.00 C878.18,116.00 871.97,116.46 870.68,117.12 C861.07,122.08 859.79,132.44 867.94,139.30 C871.11,141.96 871.36,142.00 885.59,142.00 L 900.03 142.00 L 903.64 138.69 ZM 1001.97 140.52 C1010.92,135.89 1011.36,122.98 1002.73,118.27 C999.85,116.69 996.29,116.50 969.50,116.50 C935.43,116.50 934.81,116.63 930.97,124.56 C929.29,128.04 929.16,129.18 930.13,132.08 C931.61,136.47 933.75,138.94 937.50,140.60 C942.12,142.64 998.00,142.57 1001.97,140.52 ZM 89.72 106.20 C96.62,101.28 96.43,90.79 89.34,86.00 C85.66,83.50 85.62,83.50 57.90,83.19 C39.26,82.99 28.74,83.26 25.89,84.03 C20.98,85.35 16.44,89.73 15.49,94.05 C14.62,98.00 17.59,103.76 22.04,106.79 C25.40,109.07 25.54,109.08 55.96,108.79 C86.00,108.50 86.55,108.46 89.72,106.20 ZM 220.51 107.56 C226.59,105.02 229.72,96.86 226.95,90.78 C226.36,89.51 224.26,87.35 222.27,85.98 C218.65,83.50 218.65,83.50 189.91,83.21 C162.17,82.92 161.00,82.99 156.54,85.09 C149.26,88.51 146.85,95.95 150.88,102.56 C154.58,108.64 156.42,108.95 188.28,108.98 C211.11,109.00 217.78,108.70 220.51,107.56 ZM 337.66 106.90 C341.59,104.47 344.00,100.37 344.00,96.10 C344.00,91.69 342.35,88.78 338.27,85.98 C334.66,83.51 334.58,83.50 306.90,83.19 C276.26,82.85 272.34,83.35 267.85,88.16 C262.42,93.97 263.33,100.96 270.23,106.40 L 273.50 108.98 L 303.88 108.99 C333.00,109.00 334.41,108.91 337.66,106.90 ZM 469.51 107.56 C479.30,103.47 479.41,89.36 469.68,84.94 C465.90,83.22 462.84,83.04 437.57,83.02 C411.20,83.00 409.39,83.12 405.29,85.10 C396.00,89.60 395.43,101.23 404.21,106.86 C407.36,108.88 408.74,108.97 436.78,108.98 C460.03,109.00 466.77,108.70 469.51,107.56 ZM 587.20 106.36 C594.65,101.20 594.72,90.99 587.34,86.00 L 583.65 83.50 L 554.07 83.50 C521.69,83.50 519.70,83.80 515.84,89.23 C511.73,94.99 513.82,103.09 520.46,107.14 C523.24,108.84 526.04,108.99 553.45,109.00 L 583.39 109.00 L 587.20 106.36 ZM 719.53 106.98 C724.09,104.16 726.00,100.81 726.00,95.61 C726.00,91.97 725.44,90.59 722.95,88.10 C718.12,83.28 714.58,82.83 684.13,83.18 C657.59,83.49 656.36,83.59 652.92,85.73 C644.85,90.74 645.00,101.60 653.21,106.86 C656.37,108.88 657.73,108.97 686.38,108.98 C714.62,109.00 716.44,108.89 719.53,106.98 ZM 1002.66 106.90 C1012.72,100.68 1010.51,87.10 998.92,83.98 C996.46,83.32 956.70,83.06 883.76,83.23 L 772.35 83.50 L 768.27 86.20 C760.39,91.42 760.38,100.36 768.25,106.07 L 772.30 109.00 L 885.78 109.00 C999.26,109.00 999.26,109.00 1002.66,106.90 ZM 87.58 74.39 C92.58,72.02 95.37,66.95 94.74,61.37 C94.13,55.94 91.61,53.29 85.25,51.37 C78.80,49.43 30.17,49.49 24.68,51.45 C19.57,53.27 17.21,55.58 15.86,60.07 C14.92,63.22 15.04,64.41 16.62,67.64 C17.65,69.75 20.03,72.49 21.90,73.74 C25.24,75.96 25.82,76.00 54.75,76.00 C79.72,76.00 84.71,75.76 87.58,74.39 ZM 220.28 74.64 C225.12,72.59 227.24,69.62 227.69,64.26 C228.21,58.04 226.53,55.03 221.03,52.25 C216.72,50.07 215.66,50.00 188.54,50.03 C161.29,50.06 160.37,50.12 156.00,52.35 C146.50,57.20 146.42,68.02 155.82,74.22 C158.23,75.81 161.48,75.99 187.78,75.99 C210.26,76.00 217.81,75.68 220.28,74.64 ZM 336.58 74.39 C340.85,72.37 344.00,67.35 344.00,62.59 C344.00,59.70 343.16,58.03 340.07,54.71 L 336.14 50.50 L 304.82 50.50 L 273.50 50.50 L 269.86 53.29 C261.94,59.34 262.60,68.74 271.30,74.04 C274.28,75.86 276.52,75.99 303.85,76.00 C328.74,76.00 333.71,75.76 336.58,74.39 ZM 470.70 74.04 C475.22,71.28 477.34,66.72 476.71,61.12 C476.12,55.84 473.15,52.69 467.25,51.05 C462.25,49.66 414.15,49.68 408.69,51.07 C399.01,53.54 395.17,61.85 400.02,69.81 C403.58,75.63 405.32,75.92 438.00,75.96 C465.53,75.99 467.71,75.86 470.70,74.04 ZM 586.53 73.98 C594.83,68.85 594.95,56.76 586.73,52.27 C583.91,50.72 580.02,50.46 555.82,50.19 C538.45,50.00 526.67,50.28 524.20,50.95 C518.73,52.42 515.59,55.17 514.06,59.83 C512.89,63.36 512.96,64.24 514.62,67.64 C515.65,69.75 518.03,72.49 519.90,73.74 C523.24,75.96 523.80,76.00 553.28,76.00 C581.60,76.00 583.45,75.89 586.53,73.98 ZM 719.70 74.04 C724.76,70.95 726.33,67.78 725.75,61.79 C725.18,55.84 722.47,52.78 716.25,51.05 C711.37,49.70 661.70,49.68 656.83,51.03 C654.81,51.59 651.77,53.34 650.08,54.93 C647.49,57.35 647.00,58.54 647.00,62.50 C647.00,65.69 647.68,68.15 649.15,70.21 C653.03,75.66 654.74,75.92 687.00,75.96 C714.52,75.99 716.71,75.86 719.70,74.04 ZM 868.70 74.04 C875.54,69.87 877.07,59.58 871.61,54.51 C866.81,50.07 864.18,49.86 817.00,50.19 C776.67,50.47 772.20,50.67 769.26,52.27 C760.33,57.15 760.35,68.59 769.30,74.04 C772.35,75.90 774.67,75.99 819.00,75.99 C863.36,75.99 865.65,75.90 868.70,74.04 ZM 1002.70 74.04 C1009.42,69.94 1011.16,60.52 1006.18,55.19 C1001.44,50.12 998.92,49.90 950.75,50.21 L 906.50 50.50 L 902.73 52.85 C896.00,57.03 894.31,63.18 898.27,69.10 C902.94,76.09 902.22,76.00 953.50,75.99 C997.36,75.99 999.65,75.90 1002.70,74.04 ZM 187.97 40.52 C194.68,37.05 197.18,27.87 193.01,22.02 C188.63,15.86 190.67,16.00 105.23,16.02 C31.11,16.04 27.31,16.13 23.33,17.94 C13.19,22.54 12.62,34.14 22.24,40.01 C25.42,41.94 27.44,41.99 105.30,42.00 C173.92,42.00 185.50,41.79 187.97,40.52 ZM 436.62 40.38 C443.72,37.01 446.33,28.08 441.99,21.98 C437.57,15.78 439.50,15.91 352.42,16.22 L 273.34 16.50 L 269.75 19.24 C265.88,22.20 263.45,27.68 264.38,31.39 C265.25,34.83 268.95,39.07 272.42,40.58 C274.91,41.66 290.62,41.93 354.35,41.96 C425.08,42.00 433.55,41.83 436.62,40.38 ZM 586.53 39.98 C590.08,37.79 593.00,32.67 593.00,28.65 C593.00,24.67 591.23,21.72 587.20,19.00 L 583.50 16.50 L 554.50 16.21 C525.98,15.93 525.43,15.96 521.00,18.21 C513.13,22.21 511.10,30.04 516.23,36.57 C520.22,41.64 522.15,41.92 553.88,41.96 C581.63,42.00 583.45,41.89 586.53,39.98 ZM 719.70 40.04 C726.19,36.08 728.14,26.60 723.50,21.60 C718.64,16.35 716.37,16.00 687.28,16.01 C671.99,16.01 658.91,16.45 656.79,17.04 C654.75,17.61 651.67,19.49 649.93,21.22 C647.03,24.12 646.82,24.79 647.22,29.67 C647.70,35.46 649.34,37.93 654.32,40.39 C656.99,41.70 662.27,41.96 687.00,41.97 C714.52,41.99 716.72,41.86 719.70,40.04 ZM 834.58 40.39 C843.80,36.02 844.38,23.69 835.61,18.39 C832.81,16.69 829.85,16.47 805.50,16.18 C790.65,16.01 776.57,16.15 774.22,16.50 C769.12,17.25 763.55,22.24 762.51,26.97 C761.63,30.98 764.53,36.73 768.98,39.75 C772.23,41.96 772.85,42.00 801.75,42.00 C826.72,42.00 831.71,41.76 834.58,40.39 ZM 1002.70 40.04 C1009.41,35.95 1011.16,26.52 1006.19,21.21 C1001.85,16.55 998.01,16.01 969.43,16.01 C940.41,16.00 935.74,16.75 932.00,22.00 C927.91,27.74 930.58,37.06 937.26,40.36 C940.00,41.71 945.01,41.96 970.00,41.97 C997.52,41.99 999.72,41.86 1002.70,40.04 Z" fill="rgb(254,254,253)"/>
</g>
</svg>