<svg xmlns="http://www.w3.org/2000/svg" width="1024" height="260" viewBox="0 0 1024 260">
<g>
<path d="M 1001.79 107.10 C998.20,108.94 994.30,109.00 885.79,108.95 C782.12,108.91 773.24,108.77 770.09,107.20 C760.26,102.30 759.98,89.95 769.59,85.00 C772.13,83.69 787.07,83.50 886.00,83.50 C995.44,83.50 999.61,83.57 1002.61,85.39 C1011.40,90.70 1010.95,102.39 1001.79,107.10 ZM 435.96 140.40 C432.41,141.82 423.22,141.99 353.73,141.94 C304.24,141.90 274.58,141.51 273.00,140.88 C263.26,136.99 261.54,125.51 269.75,119.24 L 273.34 116.50 L 352.42 116.22 C423.85,115.96 431.92,116.10 435.83,117.58 C446.58,121.67 446.66,136.12 435.96,140.40 ZM 437.02 39.99 C433.17,41.95 431.27,42.00 354.29,41.96 C352.08,41.96 349.92,41.96 347.83,41.96 C279.32,41.93 272.21,41.92 268.72,38.37 C268.21,37.85 267.77,37.25 267.23,36.57 C262.46,30.50 264.13,22.51 271.00,18.53 C274.42,16.54 276.21,16.49 353.39,16.23 C430.55,15.96 432.36,16.00 436.41,17.96 C446.26,22.73 446.61,35.10 437.02,39.99 ZM 188.02 39.99 C184.17,41.95 182.24,42.00 105.29,42.00 C32.25,42.00 26.25,41.87 23.07,40.25 C13.25,35.24 12.99,22.95 22.59,18.00 C25.11,16.70 36.35,16.50 105.50,16.50 C180.10,16.50 185.72,16.62 188.73,18.27 C197.38,22.99 196.97,35.42 188.02,39.99 ZM 189.17 139.50 C186.56,141.46 184.80,141.50 107.00,141.68 C53.23,141.80 26.53,141.52 24.50,140.80 C20.16,139.27 17.13,136.15 15.85,131.91 C14.24,126.52 16.99,121.26 23.00,118.23 L 27.50 115.96 L 106.50 116.23 C179.84,116.48 185.73,116.63 188.73,118.27 C196.82,122.69 197.05,133.59 189.17,139.50 ZM 404.02 172.99 C400.20,174.94 398.25,175.00 337.79,174.96 L 335.12 174.96 C279.31,174.92 272.41,174.92 268.84,171.47 C268.28,170.92 267.81,170.30 267.23,169.57 C262.46,163.50 264.13,155.51 271.00,151.53 C274.42,149.55 276.03,149.50 338.00,149.50 C396.82,149.50 401.74,149.63 404.73,151.27 C413.38,155.99 412.97,168.42 404.02,172.99 ZM 1002.02 73.99 C998.24,75.92 996.19,76.00 952.79,75.99 C913.67,75.99 907.09,75.77 904.50,74.42 C899.89,72.02 898.08,70.01 896.86,65.93 C895.92,62.78 896.04,61.60 897.62,58.41 C898.65,56.33 900.77,53.70 902.32,52.56 C905.08,50.55 906.23,50.50 952.32,50.50 C996.78,50.50 999.68,50.61 1002.61,52.39 C1011.36,57.68 1011.04,69.39 1002.02,73.99 ZM 868.02 73.99 C864.24,75.92 862.18,76.00 818.79,76.00 L 816.81 76.00 C777.80,76.00 770.54,76.00 766.76,72.37 C765.83,71.48 765.11,70.38 764.19,69.00 C761.48,64.97 761.71,60.22 764.81,56.02 C765.48,55.13 766.03,54.37 766.69,53.74 C770.12,50.50 776.61,50.50 817.71,50.50 L 818.50 50.50 C869.07,50.50 869.31,50.53 872.99,56.49 C876.95,62.89 874.78,70.54 868.02,73.99 ZM 437.02 206.99 C433.34,208.86 431.18,209.00 404.79,208.98 C379.51,208.96 376.07,208.76 372.46,207.12 C370.24,206.11 367.65,204.11 366.71,202.68 C364.38,199.12 364.51,192.49 366.99,189.02 C370.90,183.53 374.23,183.00 404.77,183.02 C429.85,183.04 432.90,183.23 436.68,184.94 C446.32,189.32 446.52,202.14 437.02,206.99 ZM 1001.46 140.02 C997.68,141.85 995.25,142.00 969.43,141.98 C944.31,141.96 941.09,141.77 937.38,140.09 C932.00,137.64 930.00,134.63 930.00,129.00 C930.00,123.37 932.00,120.36 937.38,117.91 C941.09,116.23 944.28,116.04 969.50,116.04 C994.87,116.04 997.89,116.22 1001.68,117.94 C1011.57,122.43 1011.44,135.19 1001.46,140.02 ZM 1001.79 207.10 C998.40,208.84 995.67,209.00 969.79,208.98 C944.32,208.96 941.09,208.77 937.38,207.09 C931.91,204.60 930.00,201.66 930.00,195.70 C930.00,191.71 930.50,190.35 932.83,188.02 C937.31,183.54 941.23,183.01 970.23,183.01 C992.41,183.00 997.64,183.27 1000.96,184.60 C1011.15,188.68 1011.64,202.04 1001.79,207.10 ZM 1001.46 240.02 C997.68,241.85 995.25,242.00 969.43,241.98 C944.31,241.96 941.09,241.77 937.38,240.09 C932.00,237.64 930.00,234.63 930.00,229.00 C930.00,223.37 932.00,220.36 937.38,217.91 C941.09,216.23 944.31,216.04 969.43,216.02 C995.25,216.00 997.68,216.15 1001.46,217.98 C1008.46,221.37 1010.99,228.82 1007.27,235.12 C1006.32,236.73 1003.70,238.93 1001.46,240.02 ZM 86.98 240.25 C83.91,241.79 80.16,242.00 55.46,242.00 C28.37,242.00 27.27,241.92 22.96,239.75 C17.59,237.04 14.47,231.69 15.50,226.98 C16.47,222.60 20.57,218.21 24.81,217.03 C30.69,215.40 82.33,215.69 86.28,217.37 C97.13,221.99 97.52,234.95 86.98,240.25 ZM 335.28 207.63 C332.81,208.68 325.54,209.00 303.78,208.98 C276.35,208.97 275.38,208.90 271.50,206.72 C266.60,203.98 263.54,198.39 264.50,193.98 C265.47,189.60 269.57,185.21 273.81,184.03 C278.56,182.72 329.33,182.69 334.06,184.00 C336.01,184.54 338.94,186.37 340.56,188.06 C342.99,190.60 343.50,191.98 343.50,195.99 C343.50,201.50 340.85,205.26 335.28,207.63 ZM 221.02 73.99 C217.34,75.87 215.20,76.00 188.29,75.96 C161.74,75.92 159.21,75.76 155.81,73.96 C150.86,71.35 149.00,68.41 149.00,63.21 C149.00,57.68 150.07,55.74 154.74,52.84 C158.42,50.55 159.14,50.49 186.92,50.18 C211.37,49.90 215.94,50.09 219.63,51.50 C230.07,55.48 230.90,68.95 221.02,73.99 ZM 335.80 74.60 C331.62,76.77 276.72,76.62 272.50,74.42 C267.89,72.02 266.08,70.01 264.86,65.93 C263.92,62.78 264.04,61.60 265.62,58.41 C266.65,56.33 268.77,53.70 270.32,52.56 C272.99,50.61 274.70,50.48 301.46,50.18 C319.18,49.98 331.24,50.26 333.69,50.92 C335.84,51.49 338.92,53.35 340.55,55.05 C342.99,57.60 343.50,58.97 343.50,62.99 C343.50,68.25 341.13,71.82 335.80,74.60 ZM 86.28 74.63 C83.81,75.68 76.54,76.00 54.78,75.98 C27.35,75.97 26.38,75.90 22.50,73.72 C16.99,70.64 14.33,65.18 15.85,60.09 C17.26,55.41 20.38,52.50 25.50,51.10 C30.56,49.72 80.15,49.64 85.06,51.00 C87.01,51.54 89.94,53.37 91.56,55.06 C93.99,57.60 94.50,58.98 94.50,62.99 C94.50,68.50 91.85,72.26 86.28,74.63 ZM 335.80 107.60 C333.65,108.71 327.18,108.99 304.30,108.94 C287.66,108.90 274.44,108.45 273.00,107.88 C263.26,103.99 261.54,92.51 269.75,86.24 L 273.34 83.50 L 301.56 83.18 C319.21,82.98 331.24,83.26 333.69,83.92 C335.84,84.49 338.92,86.35 340.55,88.05 C342.99,90.60 343.50,91.97 343.50,95.99 C343.50,101.25 341.13,104.82 335.80,107.60 ZM 335.28 240.63 C332.81,241.68 325.54,242.00 303.78,241.98 C276.35,241.97 275.38,241.90 271.50,239.72 C269.03,238.34 266.78,236.01 265.62,233.64 C263.08,228.46 264.58,223.18 269.70,219.28 L 273.34 216.50 L 301.56 216.18 C319.21,215.98 331.24,216.26 333.69,216.92 C335.84,217.49 338.92,219.35 340.55,221.05 C342.99,223.60 343.50,224.97 343.50,228.99 C343.50,234.50 340.85,238.26 335.28,240.63 ZM 86.80 173.60 C84.66,174.71 78.11,175.00 55.30,174.98 C27.33,174.97 26.38,174.90 22.50,172.72 C16.98,169.63 14.33,164.18 15.86,159.07 C17.21,154.58 19.57,152.27 24.68,150.45 C29.31,148.80 79.40,148.43 85.06,150.00 C87.01,150.54 89.94,152.37 91.56,154.06 C93.99,156.60 94.50,157.98 94.50,161.99 C94.50,167.25 92.13,170.82 86.80,173.60 ZM 833.80 240.60 C831.66,241.71 825.28,241.98 802.80,241.92 C785.85,241.87 773.30,241.42 771.50,240.79 C759.24,236.51 759.49,221.29 771.90,217.14 C776.18,215.71 826.98,215.59 832.06,217.00 C834.01,217.54 836.94,219.37 838.56,221.06 C840.99,223.60 841.50,224.98 841.50,228.99 C841.50,234.25 839.13,237.82 833.80,240.60 ZM 470.02 106.99 C466.34,108.87 464.20,109.00 437.29,108.96 C410.74,108.92 408.21,108.76 404.81,106.96 C399.77,104.30 398.00,101.42 398.00,95.88 C398.00,92.14 398.56,90.61 400.82,88.19 C405.35,83.35 409.21,82.85 439.82,83.19 C464.02,83.46 467.91,83.72 470.73,85.27 C479.38,89.99 478.97,102.42 470.02,106.99 ZM 1002.02 172.99 C998.34,174.87 996.20,175.00 969.29,174.96 C942.74,174.92 940.21,174.76 936.81,172.96 C931.77,170.30 930.00,167.42 930.00,161.88 C930.00,158.14 930.56,156.61 932.82,154.19 C937.35,149.35 941.21,148.85 971.82,149.19 C996.02,149.46 999.91,149.72 1002.73,151.27 C1011.38,155.99 1010.97,168.42 1002.02,172.99 ZM 221.02 106.99 C217.34,108.86 215.18,109.00 188.79,108.98 C163.19,108.96 160.10,108.78 156.33,107.06 C151.17,104.72 148.89,101.39 148.82,96.09 C148.75,91.21 150.86,87.68 155.26,85.27 C158.10,83.72 161.98,83.46 186.50,83.18 C204.63,82.97 215.79,83.24 218.16,83.94 C229.57,87.32 231.36,101.72 221.02,106.99 ZM 1001.72 40.33 C998.68,41.77 994.29,42.00 969.85,41.98 C944.32,41.96 941.09,41.77 937.38,40.09 C931.91,37.60 930.00,34.66 930.00,28.70 C930.00,24.70 930.50,23.35 932.84,21.00 C937.50,16.35 941.49,15.86 971.82,16.19 C996.85,16.47 999.80,16.68 1002.61,18.39 C1011.41,23.71 1010.91,35.97 1001.72,40.33 ZM 833.80 173.60 C831.66,174.71 825.09,175.00 802.30,175.00 C776.86,175.00 773.10,174.79 770.07,173.25 C760.25,168.24 759.99,155.95 769.59,151.00 C771.92,149.80 777.99,149.44 800.18,149.19 C817.24,149.00 829.34,149.28 831.73,149.93 C833.85,150.50 836.92,152.35 838.55,154.05 C840.99,156.60 841.50,157.97 841.50,161.99 C841.50,167.25 839.13,170.82 833.80,173.60 ZM 86.80 107.60 C82.62,109.77 27.72,109.62 23.50,107.42 C18.89,105.02 17.08,103.01 15.86,98.93 C14.92,95.78 15.04,94.60 16.62,91.38 C17.66,89.27 20.07,86.64 22.00,85.53 C25.25,83.65 27.51,83.48 53.18,83.19 C70.24,83.00 82.34,83.28 84.73,83.93 C86.85,84.50 89.92,86.35 91.55,88.05 C93.99,90.60 94.50,91.97 94.50,95.99 C94.50,101.25 92.13,104.82 86.80,107.60 ZM 469.68 240.06 C465.89,241.78 462.87,241.96 437.50,241.96 C412.47,241.96 409.07,241.76 405.46,240.12 C400.29,237.77 398.00,234.25 398.00,228.64 C398.00,225.16 398.61,223.56 400.82,221.19 C405.35,216.35 409.21,215.85 439.82,216.19 C464.02,216.46 467.91,216.72 470.73,218.27 C479.55,223.08 478.93,235.86 469.68,240.06 ZM 833.80 40.60 C831.66,41.71 825.16,41.99 802.30,41.95 C777.25,41.91 773.06,41.68 770.09,40.20 C760.26,35.30 759.98,22.95 769.59,18.00 C771.92,16.80 777.99,16.44 800.18,16.19 C817.24,16.00 829.34,16.28 831.73,16.93 C833.85,17.50 836.92,19.35 838.55,21.05 C840.99,23.60 841.50,24.97 841.50,28.99 C841.50,34.25 839.13,37.82 833.80,40.60 ZM 833.28 140.63 C829.29,142.33 776.31,142.47 771.50,140.79 C767.17,139.28 764.13,136.16 762.85,131.91 C761.92,128.79 762.04,127.59 763.62,124.41 C764.65,122.33 766.77,119.70 768.32,118.56 C770.99,116.61 772.69,116.48 799.50,116.19 C817.02,116.00 829.34,116.28 831.73,116.93 C833.86,117.50 836.92,119.35 838.55,121.05 C840.99,123.60 841.50,124.97 841.50,128.99 C841.50,134.50 838.85,138.26 833.28,140.63 ZM 833.28 207.63 C830.80,208.69 823.60,208.99 801.78,208.95 C777.22,208.91 773.05,208.68 770.09,207.20 C760.26,202.30 759.98,189.95 769.59,185.00 C771.93,183.80 777.97,183.44 800.23,183.21 C817.07,183.03 829.46,183.31 831.78,183.94 C833.88,184.51 836.92,186.35 838.55,188.05 C840.99,190.60 841.50,191.97 841.50,195.99 C841.50,201.50 838.85,205.26 833.28,207.63 ZM 86.28 207.63 C83.80,208.69 76.60,208.99 54.78,208.95 C30.22,208.91 26.05,208.68 23.09,207.20 C13.26,202.30 12.98,189.95 22.59,185.00 C24.93,183.80 30.97,183.44 53.23,183.21 C70.07,183.03 82.46,183.31 84.78,183.94 C86.88,184.51 89.92,186.35 91.55,188.05 C93.99,190.60 94.50,191.97 94.50,195.99 C94.50,201.50 91.85,205.26 86.28,207.63 ZM 470.02 73.99 C466.34,75.86 464.18,76.00 437.79,75.98 C412.16,75.96 409.11,75.78 405.32,74.06 C396.07,69.86 395.45,57.08 404.27,52.27 C407.15,50.69 410.71,50.50 437.50,50.50 C464.29,50.50 467.85,50.69 470.73,52.27 C479.38,56.99 478.97,69.42 470.02,73.99 ZM 901.70 140.04 C898.96,141.71 896.63,141.99 885.50,141.99 C874.37,141.99 872.04,141.71 869.30,140.04 C862.81,136.08 860.59,128.32 864.33,122.62 C868.00,117.01 871.22,116.01 885.50,116.01 C896.63,116.01 898.96,116.29 901.70,117.96 C907.56,121.53 909.62,128.96 906.45,135.09 C905.60,136.74 903.46,138.97 901.70,140.04 Z" fill="rgb(22,21,19)"/>
<path d="M 686.34 139.70 C683.77,141.38 679.37,141.52 620.54,141.76 C617.79,141.78 615.14,141.79 612.60,141.80 C561.85,142.02 554.19,142.05 550.53,138.24 C549.69,137.38 549.07,136.31 548.18,135.00 C543.94,128.69 546.90,120.70 554.72,117.37 C559.46,115.35 679.54,115.35 684.28,117.37 C694.50,121.72 695.60,133.63 686.34,139.70 ZM 717.28 74.63 C714.80,75.68 707.44,76.00 685.28,76.00 C658.33,75.99 656.29,75.87 653.24,74.01 C649.35,71.63 646.01,66.50 646.00,62.90 C646.00,59.25 649.90,53.82 654.02,51.75 C657.09,50.21 660.86,50.00 686.00,50.00 C717.91,50.00 719.28,50.26 723.82,57.00 C728.06,63.31 725.10,71.30 717.28,74.63 ZM 717.40 40.61 C714.81,41.69 707.64,42.00 685.28,42.00 C658.33,41.99 656.29,41.87 653.24,40.01 C649.35,37.63 646.01,32.50 646.00,28.90 C646.00,25.25 649.93,19.81 654.04,17.80 C657.04,16.32 661.24,16.09 685.78,16.05 C716.22,16.00 718.23,16.28 722.83,21.27 C724.13,22.68 725.41,25.62 725.71,27.89 C726.17,31.30 725.80,32.57 723.50,35.59 C721.98,37.58 719.24,39.84 717.40,40.61 ZM 584.98 40.25 C581.90,41.79 578.19,41.99 553.00,41.96 C531.48,41.93 523.76,41.59 521.50,40.59 C513.86,37.19 511.00,29.22 515.18,23.00 C519.72,16.26 521.12,16.00 552.78,16.00 C574.51,16.00 581.81,16.32 584.28,17.37 C591.99,20.66 595.00,28.77 590.81,35.00 C589.52,36.92 586.89,39.29 584.98,40.25 ZM 651.98 173.25 C648.90,174.79 645.19,174.99 620.00,174.96 C588.66,174.92 587.47,174.73 582.59,168.93 C580.20,166.08 579.86,164.95 580.28,161.22 C580.87,155.97 584.74,151.45 589.96,149.91 C592.19,149.25 604.09,148.98 622.05,149.18 C647.54,149.47 650.89,149.69 653.34,151.30 C656.83,153.59 659.99,158.73 660.00,162.10 C660.00,165.75 656.10,171.18 651.98,173.25 ZM 653.68 239.40 C650.98,241.41 649.59,241.51 621.18,241.74 C588.55,242.00 587.58,241.86 582.70,236.06 C579.02,231.69 579.02,226.31 582.70,221.94 C587.48,216.26 589.12,216.00 620.00,216.00 C650.47,216.00 652.76,216.34 656.81,221.48 C661.51,227.46 660.28,234.47 653.68,239.40 ZM 584.36 74.62 C581.82,75.68 574.56,76.00 552.78,76.00 C526.23,76.00 524.25,75.87 520.33,73.94 C513.30,70.45 511.12,63.11 515.27,56.90 C519.80,50.11 520.97,49.91 554.18,50.22 C582.35,50.49 584.00,50.60 586.68,52.56 C595.24,58.83 594.00,70.59 584.36,74.62 ZM 717.28 107.63 C712.70,109.58 658.92,109.54 654.42,107.58 C650.67,105.95 647.36,101.93 646.49,97.95 C645.67,94.24 648.41,88.43 652.32,85.56 C654.99,83.61 656.69,83.48 683.82,83.18 C701.87,82.98 713.81,83.25 716.04,83.91 C717.99,84.48 720.91,86.34 722.54,88.04 C724.99,90.60 725.50,91.97 725.50,95.99 C725.50,101.50 722.85,105.26 717.28,107.63 ZM 650.19 207.97 C645.62,209.23 593.75,209.18 589.35,207.91 C584.51,206.50 580.00,200.76 580.00,196.00 C580.00,191.06 584.53,185.51 589.84,183.94 C592.22,183.24 603.58,182.97 622.18,183.18 C649.31,183.48 651.01,183.61 653.68,185.56 C657.63,188.46 660.33,194.23 659.50,198.02 C658.53,202.40 654.43,206.79 650.19,207.97 ZM 586.68 106.44 C584.00,108.40 582.39,108.51 554.18,108.73 C522.06,108.99 520.87,108.82 516.00,103.55 C514.05,101.44 513.50,99.77 513.50,96.00 C513.50,90.50 516.15,86.74 521.72,84.37 C525.91,82.59 577.88,82.39 583.10,84.14 C591.00,86.78 594.64,94.02 591.38,100.59 C590.35,102.67 588.23,105.30 586.68,106.44 Z" fill="rgb(251,112,6)"/>
<path d="M 86.98 240.25 C97.52,234.95 97.13,221.99 86.28,217.37 C82.33,215.69 30.69,215.40 24.81,217.03 C20.57,218.21 16.47,222.60 15.50,226.98 C14.47,231.69 17.59,237.04 22.96,239.75 C27.27,241.92 28.37,242.00 55.46,242.00 C80.16,242.00 83.91,241.79 86.98,240.25 ZM 335.28 240.63 C340.85,238.26 343.50,234.50 343.50,228.99 C343.50,224.97 342.99,223.60 340.55,221.05 C338.92,219.35 335.84,217.49 333.69,216.92 C331.24,216.26 319.21,215.98 301.56,216.18 L 273.34 216.50 L 269.70 219.28 C264.58,223.18 263.08,228.46 265.62,233.64 C266.78,236.01 269.03,238.34 271.50,239.72 C275.38,241.90 276.35,241.97 303.78,241.98 C325.54,242.00 332.81,241.68 335.28,240.63 ZM 469.68 240.06 C478.93,235.86 479.55,223.08 470.73,218.27 C467.91,216.72 464.02,216.46 439.82,216.19 C409.21,215.85 405.35,216.35 400.82,221.19 C398.61,223.56 398.00,225.16 398.00,228.64 C398.00,234.25 400.29,237.77 405.46,240.12 C409.07,241.76 412.47,241.96 437.50,241.96 C462.87,241.96 465.89,241.78 469.68,240.06 ZM 653.68 239.40 C660.28,234.47 661.51,227.46 656.81,221.48 C652.76,216.34 650.47,216.00 620.00,216.00 C589.12,216.00 587.48,216.26 582.70,221.94 C579.02,226.31 579.02,231.69 582.70,236.06 C587.58,241.86 588.55,242.00 621.18,241.74 C649.59,241.51 650.98,241.41 653.68,239.40 ZM 833.80 240.60 C839.13,237.82 841.50,234.25 841.50,228.99 C841.50,224.98 840.99,223.60 838.56,221.06 C836.94,219.37 834.01,217.54 832.06,217.00 C826.98,215.59 776.18,215.71 771.90,217.14 C759.49,221.29 759.24,236.51 771.50,240.79 C773.30,241.42 785.85,241.87 802.80,241.92 C825.28,241.98 831.66,241.71 833.80,240.60 ZM 1001.46 240.02 C1003.70,238.93 1006.32,236.73 1007.27,235.12 C1010.99,228.82 1008.46,221.37 1001.46,217.98 C997.68,216.15 995.25,216.00 969.43,216.02 C944.31,216.04 941.09,216.23 937.38,217.91 C932.00,220.36 930.00,223.37 930.00,229.00 C930.00,234.63 932.00,237.64 937.38,240.09 C941.09,241.77 944.31,241.96 969.43,241.98 C995.25,242.00 997.68,241.85 1001.46,240.02 ZM 86.28 207.63 C91.85,205.26 94.50,201.50 94.50,195.99 C94.50,191.97 93.99,190.60 91.55,188.05 C89.92,186.35 86.88,184.51 84.78,183.94 C82.46,183.31 70.07,183.03 53.23,183.21 C30.97,183.44 24.93,183.80 22.59,185.00 C12.98,189.95 13.26,202.30 23.09,207.20 C26.05,208.68 30.22,208.91 54.78,208.95 C76.60,208.99 83.80,208.69 86.28,207.63 ZM 335.28 207.63 C340.85,205.26 343.50,201.50 343.50,195.99 C343.50,191.98 342.99,190.60 340.56,188.06 C338.94,186.37 336.01,184.54 334.06,184.00 C329.33,182.69 278.56,182.72 273.81,184.03 C269.57,185.21 265.47,189.60 264.50,193.98 C263.54,198.39 266.60,203.98 271.50,206.72 C275.38,208.90 276.35,208.97 303.78,208.98 C325.54,209.00 332.81,208.68 335.28,207.63 ZM 437.02 206.99 C446.52,202.14 446.32,189.32 436.68,184.94 C432.90,183.23 429.85,183.04 404.77,183.02 C374.23,183.00 370.90,183.53 366.99,189.02 C364.51,192.49 364.38,199.12 366.71,202.68 C367.65,204.11 370.24,206.11 372.46,207.12 C376.07,208.76 379.51,208.96 404.79,208.98 C431.18,209.00 433.34,208.86 437.02,206.99 ZM 650.19 207.97 C654.43,206.79 658.53,202.40 659.50,198.02 C660.33,194.23 657.63,188.46 653.68,185.56 C651.01,183.61 649.31,183.48 622.18,183.18 C603.58,182.97 592.22,183.24 589.84,183.94 C584.53,185.51 580.00,191.06 580.00,196.00 C580.00,200.76 584.51,206.50 589.35,207.91 C593.75,209.18 645.62,209.23 650.19,207.97 ZM 833.28 207.63 C838.85,205.26 841.50,201.50 841.50,195.99 C841.50,191.97 840.99,190.60 838.55,188.05 C836.92,186.35 833.88,184.51 831.78,183.94 C829.46,183.31 817.07,183.03 800.23,183.21 C777.97,183.44 771.93,183.80 769.59,185.00 C759.98,189.95 760.26,202.30 770.09,207.20 C773.05,208.68 777.22,208.91 801.78,208.95 C823.60,208.99 830.80,208.69 833.28,207.63 ZM 1001.79 207.10 C1011.64,202.04 1011.15,188.68 1000.96,184.60 C997.64,183.27 992.41,183.00 970.23,183.01 C941.23,183.01 937.31,183.54 932.83,188.02 C930.50,190.35 930.00,191.71 930.00,195.70 C930.00,201.66 931.91,204.60 937.38,207.09 C941.09,208.77 944.32,208.96 969.79,208.98 C995.67,209.00 998.40,208.84 1001.79,207.10 ZM 86.80 173.60 C92.13,170.82 94.50,167.25 94.50,161.99 C94.50,157.98 93.99,156.60 91.56,154.06 C89.94,152.37 87.01,150.54 85.06,150.00 C79.40,148.43 29.31,148.80 24.68,150.45 C19.57,152.27 17.21,154.58 15.86,159.07 C14.33,164.18 16.98,169.63 22.50,172.72 C26.38,174.90 27.33,174.97 55.30,174.98 C78.11,175.00 84.66,174.71 86.80,173.60 ZM 404.02 172.99 C412.97,168.42 413.38,155.99 404.73,151.27 C401.74,149.63 396.82,149.50 338.00,149.50 C276.03,149.50 274.42,149.55 271.00,151.53 C264.13,155.51 262.46,163.50 267.23,169.57 C271.50,174.99 270.53,174.92 337.79,174.96 C398.25,175.00 400.20,174.94 404.02,172.99 ZM 651.98 173.25 C656.10,171.18 660.00,165.75 660.00,162.10 C659.99,158.73 656.83,153.59 653.34,151.30 C650.89,149.69 647.54,149.47 622.05,149.18 C604.09,148.98 592.19,149.25 589.96,149.91 C584.74,151.45 580.87,155.97 580.28,161.22 C579.86,164.95 580.20,166.08 582.59,168.93 C587.47,174.73 588.66,174.92 620.00,174.96 C645.19,174.99 648.90,174.79 651.98,173.25 ZM 833.80 173.60 C839.13,170.82 841.50,167.25 841.50,161.99 C841.50,157.97 840.99,156.60 838.55,154.05 C836.92,152.35 833.85,150.50 831.73,149.93 C829.34,149.28 817.24,149.00 800.18,149.19 C777.99,149.44 771.92,149.80 769.59,151.00 C759.99,155.95 760.25,168.24 770.07,173.25 C773.10,174.79 776.86,175.00 802.30,175.00 C825.09,175.00 831.66,174.71 833.80,173.60 ZM 1002.02 172.99 C1010.97,168.42 1011.38,155.99 1002.73,151.27 C999.91,149.72 996.02,149.46 971.82,149.19 C941.21,148.85 937.35,149.35 932.82,154.19 C930.56,156.61 930.00,158.14 930.00,161.88 C930.00,167.42 931.77,170.30 936.81,172.96 C940.21,174.76 942.74,174.92 969.29,174.96 C996.20,175.00 998.34,174.87 1002.02,172.99 ZM 189.17 139.50 C197.05,133.59 196.82,122.69 188.73,118.27 C185.73,116.63 179.84,116.48 106.50,116.23 L 27.50 115.96 L 23.00 118.23 C16.99,121.26 14.24,126.52 15.85,131.91 C17.13,136.15 20.16,139.27 24.50,140.80 C26.53,141.52 53.23,141.80 107.00,141.68 C184.80,141.50 186.56,141.46 189.17,139.50 ZM 435.96 140.40 C446.66,136.12 446.58,121.67 435.83,117.58 C431.92,116.10 423.85,115.96 352.42,116.22 L 273.34 116.50 L 269.75 119.24 C261.54,125.51 263.26,136.99 273.00,140.88 C274.58,141.51 304.24,141.90 353.73,141.94 C423.22,141.99 432.41,141.82 435.96,140.40 ZM 686.34 139.70 C695.60,133.63 694.50,121.72 684.28,117.37 C679.54,115.35 559.46,115.35 554.72,117.37 C546.90,120.70 543.94,128.69 548.18,135.00 C553.13,142.35 550.06,142.06 620.54,141.76 C679.37,141.52 683.77,141.38 686.34,139.70 ZM 833.28 140.63 C838.85,138.26 841.50,134.50 841.50,128.99 C841.50,124.97 840.99,123.60 838.55,121.05 C836.92,119.35 833.86,117.50 831.73,116.93 C829.34,116.28 817.02,116.00 799.50,116.19 C772.69,116.48 770.99,116.61 768.32,118.56 C766.77,119.70 764.65,122.33 763.62,124.41 C762.04,127.59 761.92,128.79 762.85,131.91 C764.13,136.16 767.17,139.28 771.50,140.79 C776.31,142.47 829.29,142.33 833.28,140.63 ZM 901.70 140.04 C903.46,138.97 905.60,136.74 906.45,135.09 C909.62,128.96 907.56,121.53 901.70,117.96 C898.96,116.29 896.63,116.01 885.50,116.01 C871.22,116.01 868.00,117.01 864.33,122.62 C860.59,128.32 862.81,136.08 869.30,140.04 C872.04,141.71 874.37,141.99 885.50,141.99 C896.63,141.99 898.96,141.71 901.70,140.04 ZM 1001.46 140.02 C1011.44,135.19 1011.57,122.43 1001.68,117.94 C997.89,116.22 994.87,116.04 969.50,116.04 C944.28,116.04 941.09,116.23 937.38,117.91 C932.00,120.36 930.00,123.37 930.00,129.00 C930.00,134.63 932.00,137.64 937.38,140.09 C941.09,141.77 944.31,141.96 969.43,141.98 C995.25,142.00 997.68,141.85 1001.46,140.02 ZM 86.80 107.60 C92.13,104.82 94.50,101.25 94.50,95.99 C94.50,91.97 93.99,90.60 91.55,88.05 C89.92,86.35 86.85,84.50 84.73,83.93 C82.34,83.28 70.24,83.00 53.18,83.19 C27.51,83.48 25.25,83.65 22.00,85.53 C20.07,86.64 17.66,89.27 16.62,91.38 C15.04,94.60 14.92,95.78 15.86,98.93 C17.08,103.01 18.89,105.02 23.50,107.42 C27.72,109.62 82.62,109.77 86.80,107.60 ZM 221.02 106.99 C231.36,101.72 229.57,87.32 218.16,83.94 C215.79,83.24 204.63,82.97 186.50,83.18 C161.98,83.46 158.10,83.72 155.26,85.27 C150.86,87.68 148.75,91.21 148.82,96.09 C148.89,101.39 151.17,104.72 156.33,107.06 C160.10,108.78 163.19,108.96 188.79,108.98 C215.18,109.00 217.34,108.86 221.02,106.99 ZM 335.80 107.60 C341.13,104.82 343.50,101.25 343.50,95.99 C343.50,91.97 342.99,90.60 340.55,88.05 C338.92,86.35 335.84,84.49 333.69,83.92 C331.24,83.26 319.21,82.98 301.56,83.18 L 273.34 83.50 L 269.75 86.24 C261.54,92.51 263.26,103.99 273.00,107.88 C274.44,108.45 287.66,108.90 304.30,108.94 C327.18,108.99 333.65,108.71 335.80,107.60 ZM 470.02 106.99 C478.97,102.42 479.38,89.99 470.73,85.27 C467.91,83.72 464.02,83.46 439.82,83.19 C409.21,82.85 405.35,83.35 400.82,88.19 C398.56,90.61 398.00,92.14 398.00,95.88 C398.00,101.42 399.77,104.30 404.81,106.96 C408.21,108.76 410.74,108.92 437.29,108.96 C464.20,109.00 466.34,108.87 470.02,106.99 ZM 586.68 106.44 C588.23,105.30 590.35,102.67 591.38,100.59 C594.64,94.02 591.00,86.78 583.10,84.14 C577.88,82.39 525.91,82.59 521.72,84.37 C516.15,86.74 513.50,90.50 513.50,96.00 C513.50,99.77 514.05,101.44 516.00,103.55 C520.87,108.82 522.06,108.99 554.18,108.73 C582.39,108.51 584.00,108.40 586.68,106.44 ZM 717.28 107.63 C722.85,105.26 725.50,101.50 725.50,95.99 C725.50,91.97 724.99,90.60 722.54,88.04 C720.91,86.34 717.99,84.48 716.04,83.91 C713.81,83.25 701.87,82.98 683.82,83.18 C656.69,83.48 654.99,83.61 652.32,85.56 C648.41,88.43 645.67,94.24 646.49,97.95 C647.36,101.93 650.67,105.95 654.42,107.58 C658.92,109.54 712.70,109.58 717.28,107.63 ZM 1001.79 107.10 C1010.95,102.39 1011.40,90.70 1002.61,85.39 C999.61,83.57 995.44,83.50 886.00,83.50 C787.07,83.50 772.13,83.69 769.59,85.00 C759.98,89.95 760.26,102.30 770.09,107.20 C773.24,108.77 782.12,108.91 885.79,108.95 C994.30,109.00 998.20,108.94 1001.79,107.10 ZM 86.28 74.63 C91.85,72.26 94.50,68.50 94.50,62.99 C94.50,58.98 93.99,57.60 91.56,55.06 C89.94,53.37 87.01,51.54 85.06,51.00 C80.15,49.64 30.56,49.72 25.50,51.10 C20.38,52.50 17.26,55.41 15.85,60.09 C14.33,65.18 16.99,70.64 22.50,73.72 C26.38,75.90 27.35,75.97 54.78,75.98 C76.54,76.00 83.81,75.68 86.28,74.63 ZM 221.02 73.99 C230.90,68.95 230.07,55.48 219.63,51.50 C215.94,50.09 211.37,49.90 186.92,50.18 C159.14,50.49 158.42,50.55 154.74,52.84 C150.07,55.74 149.00,57.68 149.00,63.21 C149.00,68.41 150.86,71.35 155.81,73.96 C159.21,75.76 161.74,75.92 188.29,75.96 C215.20,76.00 217.34,75.87 221.02,73.99 ZM 335.80 74.60 C341.13,71.82 343.50,68.25 343.50,62.99 C343.50,58.97 342.99,57.60 340.55,55.05 C338.92,53.35 335.84,51.49 333.69,50.92 C331.24,50.26 319.18,49.98 301.46,50.18 C274.70,50.48 272.99,50.61 270.32,52.56 C268.77,53.70 266.65,56.33 265.62,58.41 C264.04,61.60 263.92,62.78 264.86,65.93 C266.08,70.01 267.89,72.02 272.50,74.42 C276.72,76.62 331.62,76.77 335.80,74.60 ZM 470.02 73.99 C478.97,69.42 479.38,56.99 470.73,52.27 C467.85,50.69 464.29,50.50 437.50,50.50 C410.71,50.50 407.15,50.69 404.27,52.27 C395.45,57.08 396.07,69.86 405.32,74.06 C409.11,75.78 412.16,75.96 437.79,75.98 C464.18,76.00 466.34,75.86 470.02,73.99 ZM 584.36 74.62 C594.00,70.59 595.24,58.83 586.68,52.56 C584.00,50.60 582.35,50.49 554.18,50.22 C520.97,49.91 519.80,50.11 515.27,56.90 C511.12,63.11 513.30,70.45 520.33,73.94 C524.25,75.87 526.23,76.00 552.78,76.00 C574.56,76.00 581.82,75.68 584.36,74.62 ZM 717.28 74.63 C725.10,71.30 728.06,63.31 723.82,57.00 C719.28,50.26 717.91,50.00 686.00,50.00 C660.86,50.00 657.09,50.21 654.02,51.75 C649.90,53.82 646.00,59.25 646.00,62.90 C646.01,66.50 649.35,71.63 653.24,74.01 C656.29,75.87 658.33,75.99 685.28,76.00 C707.44,76.00 714.80,75.68 717.28,74.63 ZM 868.02 73.99 C874.78,70.54 876.95,62.89 872.99,56.49 C869.31,50.53 869.07,50.50 818.50,50.50 C768.63,50.50 768.92,50.47 764.81,56.02 C761.71,60.22 761.48,64.97 764.19,69.00 C768.95,76.09 768.21,76.00 818.79,76.00 C862.18,76.00 864.24,75.92 868.02,73.99 ZM 1002.02 73.99 C1011.04,69.39 1011.36,57.68 1002.61,52.39 C999.68,50.61 996.78,50.50 952.32,50.50 C906.23,50.50 905.08,50.55 902.32,52.56 C900.77,53.70 898.65,56.33 897.62,58.41 C896.04,61.60 895.92,62.78 896.86,65.93 C898.08,70.01 899.89,72.02 904.50,74.42 C907.09,75.77 913.67,75.99 952.79,75.99 C996.19,76.00 998.24,75.92 1002.02,73.99 ZM 188.02 39.99 C196.97,35.42 197.38,22.99 188.73,18.27 C185.72,16.62 180.10,16.50 105.50,16.50 C36.35,16.50 25.11,16.70 22.59,18.00 C12.99,22.95 13.25,35.24 23.07,40.25 C26.25,41.87 32.25,42.00 105.29,42.00 C182.24,42.00 184.17,41.95 188.02,39.99 ZM 437.02 39.99 C446.61,35.10 446.26,22.73 436.41,17.96 C432.36,16.00 430.55,15.96 353.39,16.23 C276.21,16.49 274.42,16.54 271.00,18.53 C264.13,22.51 262.46,30.50 267.23,36.57 C271.56,42.07 269.17,41.92 354.29,41.96 C431.27,42.00 433.17,41.95 437.02,39.99 ZM 584.98 40.25 C586.89,39.29 589.52,36.92 590.81,35.00 C595.00,28.77 591.99,20.66 584.28,17.37 C581.81,16.32 574.51,16.00 552.78,16.00 C521.12,16.00 519.72,16.26 515.18,23.00 C511.00,29.22 513.86,37.19 521.50,40.59 C523.76,41.59 531.48,41.93 553.00,41.96 C578.19,41.99 581.90,41.79 584.98,40.25 ZM 717.40 40.61 C719.24,39.84 721.98,37.58 723.50,35.59 C725.80,32.57 726.17,31.30 725.71,27.89 C725.41,25.62 724.13,22.68 722.83,21.27 C718.23,16.28 716.22,16.00 685.78,16.05 C661.24,16.09 657.04,16.32 654.04,17.80 C649.93,19.81 646.00,25.25 646.00,28.90 C646.01,32.50 649.35,37.63 653.24,40.01 C656.29,41.87 658.33,41.99 685.28,42.00 C707.64,42.00 714.81,41.69 717.40,40.61 ZM 833.80 40.60 C839.13,37.82 841.50,34.25 841.50,28.99 C841.50,24.97 840.99,23.60 838.55,21.05 C836.92,19.35 833.85,17.50 831.73,16.93 C829.34,16.28 817.24,16.00 800.18,16.19 C777.99,16.44 771.92,16.80 769.59,18.00 C759.98,22.95 760.26,35.30 770.09,40.20 C773.06,41.68 777.25,41.91 802.30,41.95 C825.16,41.99 831.66,41.71 833.80,40.60 ZM 1001.72 40.33 C1010.91,35.97 1011.41,23.71 1002.61,18.39 C999.80,16.68 996.85,16.47 971.82,16.19 C941.49,15.86 937.50,16.35 932.84,21.00 C930.50,23.35 930.00,24.70 930.00,28.70 C930.00,34.66 931.91,37.60 937.38,40.09 C941.09,41.77 944.32,41.96 969.85,41.98 C994.29,42.00 998.68,41.77 1001.72,40.33 Z" fill="rgb(22,21,19)"/>
</g>
</svg>