<svg xmlns="http://www.w3.org/2000/svg" width="549" height="605" viewBox="0 0 549 605" version="1.1"><path d="M 421.500 21.523 C 418.750 22.996, 401.688 32.819, 383.585 43.351 C 348.500 63.763, 346.294 65.482, 343.932 74.254 C 343.234 76.845, 342.977 93.189, 343.184 121.850 C 343.495 164.850, 343.533 165.562, 345.741 169.692 C 349.056 175.894, 347.864 175.120, 409.614 211.183 C 431.218 223.800, 435.332 224.112, 451.853 214.395 C 457.159 211.274, 466.675 205.723, 473 202.059 C 517.735 176.142, 520.567 174.035, 523.043 164.840 C 523.706 162.377, 523.976 145.372, 523.790 117.664 L 523.500 74.340 520.461 69.420 C 517.621 64.822, 511.821 60.427, 501 54.672 C 499.625 53.941, 485.450 45.750, 469.500 36.469 L 440.500 19.595 433.500 19.220 C 427.402 18.893, 425.855 19.190, 421.500 21.523" stroke="none" fill="#f56a3b" fill-rule="evenodd"/><path d="M 247.500 89.376 C 244.750 90.672, 234.400 96.451, 224.500 102.218 C 214.600 107.986, 197.050 118.198, 185.500 124.913 C 162.807 138.106, 160.782 139.595, 157.903 145.210 C 156.108 148.710, 156 151.735, 156 198.644 C 156 247.132, 156.052 248.477, 158.102 252.711 C 159.259 255.100, 161.621 258.124, 163.352 259.430 C 167.429 262.508, 248.492 309.875, 252.718 311.649 C 257.695 313.738, 264.427 313.325, 269.783 310.602 C 272.377 309.283, 281.925 303.814, 291 298.447 C 300.075 293.081, 318.300 282.401, 331.500 274.713 C 344.700 267.024, 356.794 259.556, 358.376 258.117 C 363.975 253.023, 364.955 249.140, 364.968 232 C 364.979 217.853, 364.777 216.063, 362.651 211.497 C 360.073 205.963, 358.122 204.417, 342.500 195.532 C 331.281 189.153, 326.819 185.352, 323.677 179.500 C 321.683 175.786, 321.492 173.640, 321.015 149.500 C 320.322 114.505, 322.532 118.189, 291.665 100.575 C 281.305 94.663, 271.307 89.191, 269.447 88.413 C 264.008 86.141, 253.375 86.607, 247.500 89.376 M 120.500 162.878 C 118.850 163.892, 107.150 170.699, 94.500 178.004 C 37.783 210.755, 34.719 212.809, 30.362 221 C 28.579 224.352, 28.500 229.101, 28.500 333 L 28.500 441.500 30.658 445.500 C 31.846 447.700, 34.096 450.711, 35.658 452.192 C 38.098 454.503, 97.457 490.182, 120.721 503.321 C 138.660 513.453, 137.606 513.707, 179.741 489.097 C 198.308 478.251, 220.025 465.493, 228 460.745 C 243.213 451.688, 245.728 449.243, 247.907 441.398 C 249.517 435.597, 249.396 344.057, 247.770 338.616 C 247.057 336.230, 244.825 332.819, 242.460 330.500 C 240.004 328.093, 224.263 318.353, 202.939 306.047 C 141.497 270.586, 143.410 271.857, 138.165 263 L 135.500 258.500 135 212.500 C 134.486 165.220, 134.296 163.095, 130.446 161.618 C 127.532 160.499, 123.548 161.004, 120.500 162.878 M 467.832 231.029 C 436.558 248.216, 431.622 248.626, 408.913 235.923 C 398.241 229.953, 394.003 228.857, 389.957 231.023 C 386.625 232.806, 385.556 236.217, 384.951 247 C 384.259 259.322, 382.676 263.400, 376.020 270 C 371.776 274.208, 353.051 285.542, 297.500 317.527 C 278.525 328.453, 275.565 330.736, 272.896 336.500 C 271.172 340.224, 271.042 343.975, 271.022 390.849 C 270.998 446.465, 270.842 444.998, 277.435 451.170 C 279.121 452.748, 286.575 457.548, 294 461.836 C 301.425 466.124, 322.280 478.298, 340.345 488.889 C 377.641 510.755, 380.469 511.889, 388.856 508.346 C 396.868 504.960, 480.896 455.370, 484.772 451.739 C 486.021 450.568, 488.164 447.321, 489.533 444.523 L 492.022 439.435 492.019 338.305 C 492.018 278.992, 491.635 236.171, 491.094 234.748 C 490.587 233.414, 488.749 231.125, 487.009 229.661 C 482.221 225.632, 476.971 226.007, 467.832 231.029 M 251.500 470.870 C 244.393 474.115, 169.543 518.117, 168.207 519.836 C 164.665 524.391, 165.806 529.015, 171.366 532.645 C 175.876 535.590, 243.712 575.325, 247.775 577.403 C 253.358 580.257, 260.874 581.181, 266.509 579.705 C 269.527 578.914, 283.554 571.266, 302 560.353 C 318.775 550.429, 336.885 539.740, 342.244 536.600 C 347.604 533.460, 352.441 530.044, 352.994 529.011 C 354.516 526.167, 354.203 522.457, 352.250 520.191 C 351.288 519.075, 341.725 513.094, 331 506.901 C 320.275 500.708, 301.150 489.648, 288.500 482.323 C 267.279 470.035, 265.113 469.006, 260.500 469.024 C 257.750 469.035, 253.700 469.866, 251.500 470.870" stroke="none" fill="#192b43" fill-rule="evenodd"/></svg>